<svg id="Layer_1" data-name="Layer 1" xmlns="http://www.w3.org/2000/svg" viewBox="0 0 512 432.66005"><defs><style>.cls-1{fill:#fcd2ca;}.cls-2{fill:#f4694d;}</style></defs><path class="cls-1" d="M443.143,214.572A123.99332,123.99332,0,0,0,222.634,107.685,104.77461,104.77461,0,1,1,55.293,222.237a92.88331,92.88331,0,0,0-40.705,76.889h0a93.01065,93.01065,0,0,0,93.01,93.01H185.95l70.052-85.033,70.052,85.033h78.352a93.01066,93.01066,0,0,0,93.01-93.01h0A93.01182,93.01182,0,0,0,443.143,214.572Z" transform="translate(0 -39.67)"/><path class="cls-2" d="M460.126,207.099a138.95066,138.95066,0,0,0,3.02-28.846c0-76.415-62.169-138.583-138.584-138.583A138.69816,138.69816,0,0,0,210.646,99.373a14.58635,14.58635,0,0,0,2.41,19.316,90.17016,90.17016,0,0,1-54.53,158.12q-2.3025.1155-4.634.118c-1.389,0-2.766-.042-4.14-.105-.492-.023-.982-.057-1.472-.088q-1.287-.07952-2.564-.195c-.611-.057-1.224-.112-1.832-.181-.672-.074-1.341-.166-2.009-.255q-4.293-.5805-8.478-1.552c-.158-.036-.315-.071-.473-.109a90.45316,90.45316,0,0,1-27.712-11.839c-.179-.115-.36-.229-.538-.346q-1.134-.738-2.241-1.513c-.372-.258-.74-.522-1.106-.788-.618-.443-1.236-.888-1.842-1.346-.963-.729-1.915-1.472-2.847-2.238-.152-.124-.298-.257-.449-.382q-1.37252-1.146-2.701-2.341c-.182-.165-.362-.334-.543-.499q-1.3545-1.2435-2.661-2.537c-.079-.077-.158-.155-.235-.233a90.51681,90.51681,0,0,1-19.234-28.533c-.01-.023-.02-.047-.029-.07a90.19246,90.19246,0,0,1,83.107-125.24,14.587,14.587,0,1,0,0-29.174A119.38953,119.38953,0,0,0,38.368,216.804,107.56576,107.56576,0,0,0,107.597,406.723h75.655a14.48527,14.48527,0,0,0,2.5.239h12.667v50.781a14.58724,14.58724,0,0,0,14.587,14.587h85.988a14.58724,14.58724,0,0,0,14.587-14.587V406.962h12.667a14.51408,14.51408,0,0,0,2.5-.239h75.655a107.58627,107.58627,0,0,0,55.723-199.624ZM284.408,392.376v50.781H227.593V392.376a14.59525,14.59525,0,0,0-11.242-14.202l39.65-48.129,39.65,48.129A14.59144,14.59144,0,0,0,284.408,392.376ZM404.403,377.55H332.935l-65.676-79.72a14.5841,14.5841,0,0,0-22.516,0l-65.676,79.72H107.599A78.4029,78.4029,0,0,1,50.145,245.776,119.26612,119.26612,0,0,0,73.27,274.667c.251.23.5.46.754.689,1.233,1.109,2.48,2.198,3.755,3.254.413.343.84.67,1.257,1.008.801.645,1.606,1.281,2.423,1.905q1.0455.801,2.111,1.58c.442.322.89.635,1.336.951q2.59349,1.842,5.282,3.55c.064.041.128.083.193.124a118.705,118.705,0,0,0,35.674,15.061c.181.044.363.083.546.125q2.934.68852,5.924,1.231c.632.115,1.262.233,1.895.34q1.3155.216,2.64.406c1.1.158,2.206.295,3.314.422.702.079,1.403.162,2.108.229,1.494.144,2.995.255,4.5.343.513.031,1.028.055,1.545.079,1.783.08,3.569.136,5.367.136a119.296,119.296,0,0,0,119.371-119.37l-.001-.026a119.3103,119.3103,0,0,0-31.14-80.334,109.418,109.418,0,0,1,187.073,103.935,14.58713,14.58713,0,0,0,7.865,17.525A78.42069,78.42069,0,0,1,404.403,377.55Z" transform="translate(0 -39.67)"/></svg>