<svg width="121" height="50" viewBox="0 0 121 50" fill="none" xmlns="http://www.w3.org/2000/svg">
<g clip-path="url(#clip0_41_124)">
<path d="M30.6061 10.62C31.3501 10.764 31.9021 11.016 32.2621 11.376C32.6461 11.736 32.8381 12.156 32.8381 12.636C32.8381 13.428 32.6101 14.004 32.1541 14.364C31.7221 14.724 31.0261 14.868 30.0661 14.796C27.9061 14.628 26.2141 14.52 24.9901 14.472C23.7901 14.4 22.2061 14.352 20.2381 14.328C19.3501 18.744 18.5341 23.184 17.7901 27.648C17.5261 29.28 17.2501 31.176 16.9621 33.336C16.6741 35.472 16.4821 37.2 16.3861 38.52C16.3381 39.216 16.0501 39.756 15.5221 40.14C14.9941 40.5 14.3581 40.68 13.6141 40.68C12.8221 40.68 12.2101 40.488 11.7781 40.104C11.3461 39.72 11.1301 39.216 11.1301 38.592C11.1301 38.016 11.2141 37.068 11.3821 35.748C11.5741 34.404 11.7901 33 12.0301 31.536C12.2941 30.072 12.4981 28.8 12.6421 27.72C12.9061 25.896 13.2061 24.084 13.5421 22.284C13.8781 20.484 14.2141 18.78 14.5501 17.172C14.6221 16.812 14.7061 16.404 14.8021 15.948C14.8981 15.468 15.0061 14.94 15.1261 14.364C12.7741 14.436 10.9261 14.628 9.58208 14.94C8.23808 15.252 7.27808 15.696 6.70208 16.272C6.15008 16.824 5.87408 17.544 5.87408 18.432C5.87408 19.248 6.11408 20.028 6.59408 20.772C6.69008 20.94 6.73808 21.12 6.73808 21.312C6.73808 21.768 6.46208 22.2 5.91008 22.608C5.38208 22.992 4.83008 23.184 4.25408 23.184C3.84608 23.184 3.51008 23.064 3.24608 22.824C2.76608 22.416 2.37008 21.84 2.05808 21.096C1.74608 20.328 1.59008 19.464 1.59008 18.504C1.59008 16.464 2.25008 14.832 3.57008 13.608C4.91408 12.36 6.94208 11.448 9.65408 10.872C12.3901 10.296 15.8941 10.008 20.1661 10.008C22.8061 10.008 24.9061 10.056 26.4661 10.152C28.0501 10.248 29.4301 10.404 30.6061 10.62ZM39.9813 32.472C40.2933 32.472 40.5333 32.616 40.7013 32.904C40.8933 33.192 40.9893 33.588 40.9893 34.092C40.9893 35.052 40.7613 35.796 40.3053 36.324C39.4173 37.404 38.1573 38.4 36.5253 39.312C34.9173 40.224 33.1893 40.68 31.3413 40.68C28.8213 40.68 26.8653 39.996 25.4733 38.628C24.0813 37.26 23.3853 35.388 23.3853 33.012C23.3853 31.356 23.7333 29.82 24.4293 28.404C25.1253 26.964 26.0853 25.824 27.3093 24.984C28.5573 24.144 29.9613 23.724 31.5213 23.724C32.9133 23.724 34.0293 24.144 34.8693 24.984C35.7093 25.8 36.1293 26.916 36.1293 28.332C36.1293 29.988 35.5293 31.416 34.3293 32.616C33.1533 33.792 31.1493 34.728 28.3173 35.424C28.9173 36.528 30.0573 37.08 31.7373 37.08C32.8173 37.08 34.0413 36.708 35.4093 35.964C36.8013 35.196 38.0013 34.2 39.0093 32.976C39.2973 32.64 39.6213 32.472 39.9813 32.472ZM30.9093 27.252C30.0213 27.252 29.2653 27.768 28.6413 28.8C28.0413 29.832 27.7413 31.08 27.7413 32.544V32.616C29.1573 32.28 30.2733 31.776 31.0893 31.104C31.9053 30.432 32.3133 29.652 32.3133 28.764C32.3133 28.308 32.1813 27.948 31.9173 27.684C31.6773 27.396 31.3413 27.252 30.9093 27.252ZM56.7103 33.552C57.0223 33.552 57.2623 33.696 57.4303 33.984C57.6223 34.272 57.7183 34.668 57.7183 35.172C57.7183 36.036 57.5143 36.78 57.1063 37.404C55.6903 39.588 53.6743 40.68 51.0583 40.68C49.9303 40.68 48.9223 40.464 48.0343 40.032C47.1703 39.576 46.4623 38.928 45.9103 38.088C44.5183 39.792 42.8983 40.644 41.0503 40.644C39.7303 40.644 38.6863 40.26 37.9183 39.492C37.1503 38.724 36.7663 37.704 36.7663 36.432C36.7663 35.232 37.0423 34.26 37.5943 33.516C38.1463 32.772 38.9263 32.4 39.9343 32.4C40.7983 32.4 41.2303 32.724 41.2303 33.372C41.2303 33.564 41.2063 33.9 41.1583 34.38L41.0503 35.748C41.0503 36.468 41.3623 36.828 41.9863 36.828C42.4423 36.828 42.8743 36.564 43.2823 36.036C43.7143 35.484 44.0623 34.74 44.3263 33.804C44.6143 32.868 44.7583 31.836 44.7583 30.708C44.7583 29.844 44.6503 29.124 44.4343 28.548C44.2183 27.948 43.9543 27.648 43.6423 27.648C43.3783 27.648 43.1863 27.72 43.0663 27.864C42.9463 27.984 42.8263 28.2 42.7063 28.512C42.5623 28.896 42.3703 29.208 42.1303 29.448C41.8903 29.664 41.4703 29.772 40.8703 29.772C40.3423 29.772 39.9223 29.592 39.6103 29.232C39.2983 28.848 39.1423 28.272 39.1423 27.504C39.1423 26.28 39.5143 25.32 40.2583 24.624C41.0023 23.928 41.9623 23.58 43.1383 23.58C44.1463 23.58 45.0583 23.832 45.8743 24.336C46.6903 24.816 47.3143 25.524 47.7463 26.46C48.4663 25.5 49.2703 24.78 50.1583 24.3C51.0703 23.82 51.9583 23.58 52.8223 23.58C53.7583 23.58 54.4663 23.796 54.9463 24.228C55.4503 24.66 55.7023 25.356 55.7023 26.316C55.7023 27.396 55.4983 28.248 55.0903 28.872C54.6823 29.472 54.1903 29.772 53.6143 29.772C53.0863 29.772 52.7263 29.664 52.5343 29.448C52.3423 29.232 52.1983 28.92 52.1023 28.512C52.0543 28.224 51.9823 28.008 51.8863 27.864C51.7903 27.72 51.6223 27.648 51.3823 27.648C51.0943 27.648 50.7823 27.924 50.4463 28.476C50.1343 29.004 49.8583 29.712 49.6183 30.6C49.4023 31.488 49.2943 32.412 49.2943 33.372C49.2943 34.452 49.5343 35.316 50.0143 35.964C50.5183 36.612 51.1183 36.936 51.8143 36.936C53.1343 36.936 54.4423 35.988 55.7383 34.092C55.9783 33.732 56.3023 33.552 56.7103 33.552Z" fill="#F4694D"/>
<path d="M74.8211 32.472C75.1331 32.472 75.3731 32.616 75.5411 32.904C75.7331 33.192 75.8291 33.588 75.8291 34.092C75.8291 35.052 75.6011 35.796 75.1451 36.324C74.1131 37.596 72.9851 38.64 71.7611 39.456C70.5371 40.272 69.1331 40.68 67.5491 40.68C62.6531 40.68 60.2051 37.236 60.2051 30.348C60.2051 29.292 60.2411 28.224 60.3131 27.144H58.9091C58.1891 27.144 57.6971 27.012 57.4331 26.748C57.1931 26.484 57.0731 26.064 57.0731 25.488C57.0731 24.144 57.6131 23.472 58.6931 23.472H60.7451C61.1531 20.832 61.7771 18.42 62.6171 16.236C63.4571 14.052 64.4651 12.312 65.6411 11.016C66.8411 9.72 68.1251 9.072 69.4931 9.072C70.5011 9.072 71.2931 9.516 71.8691 10.404C72.4451 11.292 72.7331 12.408 72.7331 13.752C72.7331 17.472 71.1731 20.712 68.0531 23.472H72.0851C72.4691 23.472 72.7451 23.556 72.9131 23.724C73.0811 23.892 73.1651 24.204 73.1651 24.66C73.1651 26.316 71.8091 27.144 69.0971 27.144H64.7051C64.6571 28.344 64.6331 29.28 64.6331 29.952C64.6331 32.448 64.9211 34.2 65.4971 35.208C66.0971 36.216 67.0331 36.72 68.3051 36.72C69.3371 36.72 70.2491 36.408 71.0411 35.784C71.8331 35.16 72.7691 34.224 73.8491 32.976C74.1371 32.64 74.4611 32.472 74.8211 32.472ZM68.5211 12.528C68.1611 12.528 67.7531 12.984 67.2971 13.896C66.8651 14.784 66.4451 16.032 66.0371 17.64C65.6531 19.224 65.3291 20.988 65.0651 22.932C66.4811 21.708 67.5371 20.34 68.2331 18.828C68.9531 17.292 69.3131 15.9 69.3131 14.652C69.3131 13.236 69.0491 12.528 68.5211 12.528ZM76.5699 40.68C75.4899 40.68 74.6019 40.188 73.9059 39.204C73.2339 38.196 72.8979 36.948 72.8979 35.46C72.8979 33.66 73.0179 32.016 73.2579 30.528C73.4979 29.016 73.8939 27.42 74.4459 25.74C74.6859 25.02 75.0219 24.504 75.4539 24.192C75.8859 23.88 76.5699 23.724 77.5059 23.724C78.0339 23.724 78.3939 23.808 78.5859 23.976C78.8019 24.144 78.9099 24.396 78.9099 24.732C78.9099 24.924 78.7779 25.572 78.5139 26.676C78.2739 27.564 78.0819 28.368 77.9379 29.088C77.4579 31.608 77.2179 33.288 77.2179 34.128C77.2179 34.632 77.2779 34.992 77.3979 35.208C77.5179 35.4 77.7099 35.496 77.9739 35.496C78.3339 35.496 78.7779 35.136 79.3059 34.416C79.8579 33.696 80.4339 32.604 81.0339 31.14C81.6579 29.676 82.2579 27.876 82.8339 25.74C83.0259 25.02 83.3139 24.504 83.6979 24.192C84.1059 23.88 84.7059 23.724 85.4979 23.724C86.0499 23.724 86.4339 23.796 86.6499 23.94C86.8659 24.06 86.9739 24.3 86.9739 24.66C86.9739 25.26 86.6739 26.904 86.0739 29.592C85.4019 32.664 85.0659 34.56 85.0659 35.28C85.0659 35.736 85.1619 36.096 85.3539 36.36C85.5459 36.6 85.7979 36.72 86.1099 36.72C86.5899 36.72 87.1539 36.432 87.8019 35.856C88.4739 35.256 89.3619 34.296 90.4659 32.976C90.7539 32.64 91.0779 32.472 91.4379 32.472C91.7499 32.472 91.9899 32.616 92.1579 32.904C92.3499 33.192 92.4459 33.588 92.4459 34.092C92.4459 35.052 92.2179 35.796 91.7619 36.324C90.7299 37.596 89.6139 38.64 88.4139 39.456C87.2379 40.272 85.8939 40.68 84.3819 40.68C83.2299 40.68 82.3779 40.236 81.8259 39.348C81.2979 38.46 81.0339 37.212 81.0339 35.604C80.6259 37.236 80.0139 38.496 79.1979 39.384C78.3819 40.248 77.5059 40.68 76.5699 40.68ZM92.0828 40.68C91.1708 40.68 90.5228 40.2 90.1388 39.24C89.7788 38.28 89.5988 36.744 89.5988 34.632C89.5988 31.512 90.0428 28.548 90.9308 25.74C91.1468 25.044 91.4948 24.54 91.9748 24.228C92.4788 23.892 93.1748 23.724 94.0628 23.724C94.5428 23.724 94.8788 23.784 95.0708 23.904C95.2628 24.024 95.3588 24.252 95.3588 24.588C95.3588 24.972 95.1788 25.836 94.8188 27.18C94.5788 28.14 94.3868 28.98 94.2428 29.7C94.0988 30.42 93.9788 31.308 93.8828 32.364C94.6748 30.3 95.5628 28.62 96.5468 27.324C97.5308 26.028 98.4908 25.104 99.4268 24.552C100.387 24 101.263 23.724 102.055 23.724C103.615 23.724 104.395 24.504 104.395 26.064C104.395 26.376 104.287 27.132 104.071 28.332C103.879 29.292 103.783 29.892 103.783 30.132C103.783 30.972 104.083 31.392 104.683 31.392C105.355 31.392 106.219 30.864 107.275 29.808C107.587 29.496 107.911 29.34 108.247 29.34C108.559 29.34 108.799 29.484 108.967 29.772C109.159 30.036 109.255 30.396 109.255 30.852C109.255 31.74 109.015 32.436 108.535 32.94C107.863 33.636 107.071 34.236 106.159 34.74C105.271 35.22 104.323 35.46 103.315 35.46C102.043 35.46 101.071 35.136 100.399 34.488C99.7508 33.84 99.4268 32.964 99.4268 31.86C99.4268 31.5 99.4628 31.14 99.5348 30.78C99.5828 30.3 99.6068 29.976 99.6068 29.808C99.6068 29.424 99.4748 29.232 99.2108 29.232C98.8508 29.232 98.3708 29.64 97.7708 30.456C97.1948 31.248 96.6188 32.304 96.0428 33.624C95.4668 34.944 94.9988 36.336 94.6388 37.8C94.3748 38.928 94.0628 39.696 93.7028 40.104C93.3668 40.488 92.8268 40.68 92.0828 40.68ZM110.05 40.68C108.682 40.68 107.566 40.14 106.702 39.06C105.862 37.98 105.442 36.564 105.442 34.812C105.442 32.892 105.886 31.08 106.774 29.376C107.662 27.648 108.838 26.268 110.302 25.236C111.79 24.18 113.362 23.652 115.018 23.652C115.546 23.652 115.894 23.76 116.062 23.976C116.254 24.168 116.41 24.528 116.53 25.056C116.986 24.96 117.49 24.912 118.042 24.912C118.618 24.912 119.062 25.056 119.374 25.344C119.686 25.632 119.842 26.04 119.842 26.568C119.842 27.12 119.722 28.08 119.482 29.448C119.218 30.912 119.014 32.316 118.87 33.66C118.726 34.98 118.654 36.468 118.654 38.124C118.654 39.036 118.462 39.696 118.078 40.104C117.718 40.488 117.118 40.68 116.278 40.68C115.462 40.68 114.85 40.488 114.442 40.104C114.058 39.696 113.866 39.048 113.866 38.16L113.902 37.584C113.158 39.648 111.874 40.68 110.05 40.68ZM111.454 37.044C112.126 37.044 112.738 36.576 113.29 35.64C113.842 34.704 114.334 33.036 114.766 30.636L115.45 27C114.466 27.024 113.554 27.408 112.714 28.152C111.874 28.872 111.202 29.832 110.698 31.032C110.194 32.232 109.942 33.504 109.942 34.848C109.942 35.568 110.074 36.12 110.338 36.504C110.626 36.864 110.998 37.044 111.454 37.044Z" fill="#1A212F"/>
</g>
<defs>
<clipPath id="clip0_41_124">
<rect width="121" height="50" fill="white"/>
</clipPath>
</defs>
</svg>
