<svg width="161" height="84" viewBox="0 0 161 84" fill="none" xmlns="http://www.w3.org/2000/svg">
<g clip-path="url(#clip0_1832_13425)">
<path d="M40.6414 22.16C41.6334 22.352 42.3694 22.688 42.8494 23.168C43.3614 23.648 43.6174 24.208 43.6174 24.848C43.6174 25.904 43.3134 26.672 42.7054 27.152C42.1294 27.632 41.2014 27.824 39.9214 27.728C37.0414 27.504 34.7854 27.36 33.1534 27.296C31.5534 27.2 29.4414 27.136 26.8174 27.104C25.6334 32.992 24.5454 38.912 23.5534 44.864C23.2014 47.04 22.8334 49.568 22.4494 52.448C22.0654 55.296 21.8094 57.6 21.6814 59.36C21.6174 60.288 21.2334 61.008 20.5294 61.52C19.8254 62 18.9774 62.24 17.9854 62.24C16.9294 62.24 16.1134 61.984 15.5374 61.472C14.9614 60.96 14.6734 60.288 14.6734 59.456C14.6734 58.688 14.7854 57.424 15.0094 55.664C15.2654 53.872 15.5534 52 15.8734 50.048C16.2254 48.096 16.4974 46.4 16.6894 44.96C17.0414 42.528 17.4414 40.112 17.8894 37.712C18.3374 35.312 18.7854 33.04 19.2334 30.896C19.3294 30.416 19.4414 29.872 19.5694 29.264C19.6974 28.624 19.8414 27.92 20.0014 27.152C16.8654 27.248 14.4014 27.504 12.6094 27.92C10.8174 28.336 9.53744 28.928 8.76944 29.696C8.03344 30.432 7.66544 31.392 7.66544 32.576C7.66544 33.664 7.98544 34.704 8.62544 35.696C8.75344 35.92 8.81744 36.16 8.81744 36.416C8.81744 37.024 8.44944 37.6 7.71344 38.144C7.00944 38.656 6.27344 38.912 5.50544 38.912C4.96144 38.912 4.51344 38.752 4.16144 38.432C3.52144 37.888 2.99344 37.12 2.57744 36.128C2.16144 35.104 1.95344 33.952 1.95344 32.672C1.95344 29.952 2.83344 27.776 4.59344 26.144C6.38544 24.48 9.08944 23.264 12.7054 22.496C16.3534 21.728 21.0254 21.344 26.7214 21.344C30.2414 21.344 33.0414 21.408 35.1214 21.536C37.2334 21.664 39.0734 21.872 40.6414 22.16ZM53.1417 51.296C53.5577 51.296 53.8777 51.488 54.1017 51.872C54.3577 52.256 54.4857 52.784 54.4857 53.456C54.4857 54.736 54.1817 55.728 53.5737 56.432C52.3897 57.872 50.7097 59.2 48.5337 60.416C46.3897 61.632 44.0857 62.24 41.6217 62.24C38.2617 62.24 35.6537 61.328 33.7977 59.504C31.9417 57.68 31.0137 55.184 31.0137 52.016C31.0137 49.808 31.4777 47.76 32.4057 45.872C33.3337 43.952 34.6137 42.432 36.2457 41.312C37.9097 40.192 39.7817 39.632 41.8617 39.632C43.7177 39.632 45.2057 40.192 46.3257 41.312C47.4457 42.4 48.0057 43.888 48.0057 45.776C48.0057 47.984 47.2057 49.888 45.6057 51.488C44.0377 53.056 41.3657 54.304 37.5897 55.232C38.3897 56.704 39.9097 57.44 42.1497 57.44C43.5897 57.44 45.2217 56.944 47.0457 55.952C48.9017 54.928 50.5017 53.6 51.8457 51.968C52.2297 51.52 52.6617 51.296 53.1417 51.296ZM41.0457 44.336C39.8617 44.336 38.8537 45.024 38.0217 46.4C37.2217 47.776 36.8217 49.44 36.8217 51.392V51.488C38.7097 51.04 40.1977 50.368 41.2857 49.472C42.3737 48.576 42.9177 47.536 42.9177 46.352C42.9177 45.744 42.7417 45.264 42.3897 44.912C42.0697 44.528 41.6217 44.336 41.0457 44.336ZM75.4471 52.736C75.8631 52.736 76.1831 52.928 76.4071 53.312C76.6631 53.696 76.7911 54.224 76.7911 54.896C76.7911 56.048 76.5191 57.04 75.9751 57.872C74.0871 60.784 71.3991 62.24 67.9111 62.24C66.4071 62.24 65.0631 61.952 63.8791 61.376C62.7271 60.768 61.7831 59.904 61.0471 58.784C59.1911 61.056 57.0311 62.192 54.5671 62.192C52.8071 62.192 51.4151 61.68 50.3911 60.656C49.3671 59.632 48.8551 58.272 48.8551 56.576C48.8551 54.976 49.2231 53.68 49.9591 52.688C50.6951 51.696 51.7351 51.2 53.0791 51.2C54.2311 51.2 54.8071 51.632 54.8071 52.496C54.8071 52.752 54.7751 53.2 54.7111 53.84L54.5671 55.664C54.5671 56.624 54.9831 57.104 55.8151 57.104C56.4231 57.104 56.9991 56.752 57.5431 56.048C58.1191 55.312 58.5831 54.32 58.9351 53.072C59.3191 51.824 59.5111 50.448 59.5111 48.944C59.5111 47.792 59.3671 46.832 59.0791 46.064C58.7911 45.264 58.4391 44.864 58.0231 44.864C57.6711 44.864 57.4151 44.96 57.2551 45.152C57.0951 45.312 56.9351 45.6 56.7751 46.016C56.5831 46.528 56.3271 46.944 56.0071 47.264C55.6871 47.552 55.1271 47.696 54.3271 47.696C53.6231 47.696 53.0631 47.456 52.6471 46.976C52.2311 46.464 52.0231 45.696 52.0231 44.672C52.0231 43.04 52.5191 41.76 53.5111 40.832C54.5031 39.904 55.7831 39.44 57.3511 39.44C58.6951 39.44 59.9111 39.776 60.9991 40.448C62.0871 41.088 62.9191 42.032 63.4951 43.28C64.4551 42 65.5271 41.04 66.7111 40.4C67.9271 39.76 69.1111 39.44 70.2631 39.44C71.5111 39.44 72.4551 39.728 73.0951 40.304C73.7671 40.88 74.1031 41.808 74.1031 43.088C74.1031 44.528 73.8311 45.664 73.2871 46.496C72.7431 47.296 72.0871 47.696 71.3191 47.696C70.6151 47.696 70.1351 47.552 69.8791 47.264C69.6231 46.976 69.4311 46.56 69.3031 46.016C69.2391 45.632 69.1431 45.344 69.0151 45.152C68.8871 44.96 68.6631 44.864 68.3431 44.864C67.9591 44.864 67.5431 45.232 67.0951 45.968C66.6791 46.672 66.3111 47.616 65.9911 48.8C65.7031 49.984 65.5591 51.216 65.5591 52.496C65.5591 53.936 65.8791 55.088 66.5191 55.952C67.1911 56.816 67.9911 57.248 68.9191 57.248C70.6791 57.248 72.4231 55.984 74.1511 53.456C74.4711 52.976 74.9031 52.736 75.4471 52.736Z" fill="#F4694D"/>
<path d="M99.5948 51.296C100.011 51.296 100.331 51.488 100.555 51.872C100.811 52.256 100.939 52.784 100.939 53.456C100.939 54.736 100.635 55.728 100.027 56.432C98.6508 58.128 97.1468 59.52 95.5148 60.608C93.8828 61.696 92.0108 62.24 89.8988 62.24C83.3708 62.24 80.1068 57.648 80.1068 48.464C80.1068 47.056 80.1548 45.632 80.2508 44.192H78.3788C77.4188 44.192 76.7628 44.016 76.4108 43.664C76.0908 43.312 75.9308 42.752 75.9308 41.984C75.9308 40.192 76.6508 39.296 78.0908 39.296H80.8268C81.3708 35.776 82.2028 32.56 83.3228 29.648C84.4428 26.736 85.7868 24.416 87.3548 22.688C88.9548 20.96 90.6668 20.096 92.4908 20.096C93.8348 20.096 94.8908 20.688 95.6588 21.872C96.4268 23.056 96.8108 24.544 96.8108 26.336C96.8108 31.296 94.7308 35.616 90.5708 39.296H95.9468C96.4588 39.296 96.8268 39.408 97.0508 39.632C97.2748 39.856 97.3868 40.272 97.3868 40.88C97.3868 43.088 95.5788 44.192 91.9628 44.192H86.1068C86.0428 45.792 86.0108 47.04 86.0108 47.936C86.0108 51.264 86.3948 53.6 87.1628 54.944C87.9628 56.288 89.2108 56.96 90.9068 56.96C92.2828 56.96 93.4988 56.544 94.5548 55.712C95.6108 54.88 96.8588 53.632 98.2988 51.968C98.6828 51.52 99.1148 51.296 99.5948 51.296ZM91.1948 24.704C90.7148 24.704 90.1708 25.312 89.5628 26.528C88.9868 27.712 88.4268 29.376 87.8828 31.52C87.3708 33.632 86.9388 35.984 86.5868 38.576C88.4748 36.944 89.8828 35.12 90.8108 33.104C91.7708 31.056 92.2508 29.2 92.2508 27.536C92.2508 25.648 91.8988 24.704 91.1948 24.704ZM101.927 62.24C100.487 62.24 99.3026 61.584 98.3746 60.272C97.4786 58.928 97.0306 57.264 97.0306 55.28C97.0306 52.88 97.1906 50.688 97.5106 48.704C97.8306 46.688 98.3586 44.56 99.0946 42.32C99.4146 41.36 99.8626 40.672 100.439 40.256C101.015 39.84 101.927 39.632 103.175 39.632C103.879 39.632 104.359 39.744 104.615 39.968C104.903 40.192 105.047 40.528 105.047 40.976C105.047 41.232 104.871 42.096 104.519 43.568C104.199 44.752 103.943 45.824 103.751 46.784C103.111 50.144 102.791 52.384 102.791 53.504C102.791 54.176 102.871 54.656 103.031 54.944C103.191 55.2 103.447 55.328 103.799 55.328C104.279 55.328 104.871 54.848 105.575 53.888C106.311 52.928 107.079 51.472 107.879 49.52C108.711 47.568 109.511 45.168 110.279 42.32C110.535 41.36 110.919 40.672 111.431 40.256C111.975 39.84 112.775 39.632 113.831 39.632C114.567 39.632 115.079 39.728 115.367 39.92C115.655 40.08 115.799 40.4 115.799 40.88C115.799 41.68 115.399 43.872 114.599 47.456C113.703 51.552 113.255 54.08 113.255 55.04C113.255 55.648 113.383 56.128 113.639 56.48C113.895 56.8 114.231 56.96 114.647 56.96C115.287 56.96 116.039 56.576 116.903 55.808C117.799 55.008 118.983 53.728 120.455 51.968C120.839 51.52 121.271 51.296 121.751 51.296C122.167 51.296 122.487 51.488 122.711 51.872C122.967 52.256 123.095 52.784 123.095 53.456C123.095 54.736 122.791 55.728 122.183 56.432C120.807 58.128 119.319 59.52 117.719 60.608C116.151 61.696 114.359 62.24 112.343 62.24C110.807 62.24 109.671 61.648 108.935 60.464C108.231 59.28 107.879 57.616 107.879 55.472C107.335 57.648 106.519 59.328 105.431 60.512C104.343 61.664 103.175 62.24 101.927 62.24ZM122.61 62.24C121.394 62.24 120.53 61.6 120.018 60.32C119.538 59.04 119.298 56.992 119.298 54.176C119.298 50.016 119.89 46.064 121.074 42.32C121.362 41.392 121.826 40.72 122.466 40.304C123.138 39.856 124.066 39.632 125.25 39.632C125.89 39.632 126.338 39.712 126.594 39.872C126.85 40.032 126.978 40.336 126.978 40.784C126.978 41.296 126.738 42.448 126.258 44.24C125.938 45.52 125.682 46.64 125.49 47.6C125.298 48.56 125.138 49.744 125.01 51.152C126.066 48.4 127.25 46.16 128.562 44.432C129.874 42.704 131.154 41.472 132.402 40.736C133.682 40 134.85 39.632 135.906 39.632C137.986 39.632 139.026 40.672 139.026 42.752C139.026 43.168 138.882 44.176 138.594 45.776C138.338 47.056 138.21 47.856 138.21 48.176C138.21 49.296 138.61 49.856 139.41 49.856C140.306 49.856 141.458 49.152 142.866 47.744C143.282 47.328 143.714 47.12 144.162 47.12C144.578 47.12 144.898 47.312 145.122 47.696C145.378 48.048 145.506 48.528 145.506 49.136C145.506 50.32 145.186 51.248 144.546 51.92C143.65 52.848 142.594 53.648 141.378 54.32C140.194 54.96 138.93 55.28 137.586 55.28C135.89 55.28 134.594 54.848 133.698 53.984C132.834 53.12 132.402 51.952 132.402 50.48C132.402 50 132.45 49.52 132.546 49.04C132.61 48.4 132.642 47.968 132.642 47.744C132.642 47.232 132.466 46.976 132.114 46.976C131.634 46.976 130.994 47.52 130.194 48.608C129.426 49.664 128.658 51.072 127.89 52.832C127.122 54.592 126.498 56.448 126.018 58.4C125.666 59.904 125.25 60.928 124.77 61.472C124.322 61.984 123.602 62.24 122.61 62.24ZM146.566 62.24C144.742 62.24 143.254 61.52 142.102 60.08C140.982 58.64 140.422 56.752 140.422 54.416C140.422 51.856 141.014 49.44 142.198 47.168C143.382 44.864 144.95 43.024 146.902 41.648C148.886 40.24 150.982 39.536 153.19 39.536C153.894 39.536 154.358 39.68 154.582 39.968C154.838 40.224 155.046 40.704 155.206 41.408C155.814 41.28 156.486 41.216 157.222 41.216C157.99 41.216 158.582 41.408 158.998 41.792C159.414 42.176 159.622 42.72 159.622 43.424C159.622 44.16 159.462 45.44 159.142 47.264C158.79 49.216 158.518 51.088 158.326 52.88C158.134 54.64 158.038 56.624 158.038 58.832C158.038 60.048 157.782 60.928 157.27 61.472C156.79 61.984 155.99 62.24 154.87 62.24C153.782 62.24 152.966 61.984 152.422 61.472C151.91 60.928 151.654 60.064 151.654 58.88L151.702 58.112C150.71 60.864 148.998 62.24 146.566 62.24ZM148.438 57.392C149.334 57.392 150.15 56.768 150.886 55.52C151.622 54.272 152.278 52.048 152.854 48.848L153.766 44C152.454 44.032 151.238 44.544 150.118 45.536C148.998 46.496 148.102 47.776 147.43 49.376C146.758 50.976 146.422 52.672 146.422 54.464C146.422 55.424 146.598 56.16 146.95 56.672C147.334 57.152 147.83 57.392 148.438 57.392Z" fill="#F9FBFC"/>
</g>
<defs>
<clipPath id="clip0_1832_13425">
<rect width="161" height="84" fill="white"/>
</clipPath>
</defs>
</svg>
