<svg width="800" height="672" viewBox="0 0 800 672" fill="none" xmlns="http://www.w3.org/2000/svg">
<g clip-path="url(#clip0_1447_13682)">
<path d="M337.588 592.078H18.2031L59.6129 490.286L81.49 478.291L115.924 398.691L143.765 382.334L170.231 334.45H196.367L254.441 432.494L283.988 447.76L337.588 592.078Z" fill="#EBEBEB"/>
<path d="M18.2031 592.078H155.965V512.641L191.315 457.028L174.473 398.691L196.367 334.45H170.231L143.765 382.334L115.924 398.691L81.49 478.291L59.6129 490.286L18.2031 592.078Z" fill="#DBDBDB"/>
<path d="M196.367 592.078L209.714 550.259L231.305 528.996L240.94 503.917L247.662 509.369V533.358L231.305 552.441V592.235L196.367 592.078Z" fill="#DBDBDB"/>
<path d="M222.014 463.263L225.6 446.487L235.224 436.856L239.736 442.581L233.721 450.059L236.427 466.024L222.014 463.263Z" fill="#DBDBDB"/>
<path d="M314.607 592.003H781.796L693.639 407.903L651.237 389.723L606.231 301.775L576.546 269.848L550.386 211.616L519.751 216.58L467.381 338.59L438.138 360.407L390.642 486.078L343.85 531.53L314.607 592.003Z" fill="#EBEBEB"/>
<path d="M550.386 211.616L553.976 303.365L519.487 351.544L535.666 388.418L503.639 469.715L531.55 536.984L515.02 592.003H314.607L343.85 531.53L390.642 486.078L438.138 360.407L467.381 338.59L519.751 216.58L550.386 211.616Z" fill="#DBDBDB"/>
<path d="M541.77 446.082L565.825 404.266L563.938 386.54L572.899 373.814L583.748 409.947L551.203 446.082H541.77Z" fill="#DBDBDB"/>
<path d="M522.9 138.712L524.607 142.169L528.424 142.725L525.663 145.416L526.315 149.217L522.9 147.423L519.487 149.217L520.14 145.416L517.377 142.725L521.194 142.169L522.9 138.712Z" fill="#DBDBDB"/>
<path d="M202.137 311.658L203.843 315.117L207.66 315.671L204.899 318.362L205.55 322.165L202.137 320.369L198.724 322.165L199.376 318.362L196.613 315.671L200.43 315.117L202.137 311.658Z" fill="#DBDBDB"/>
<path d="M647.797 11.9413L649.503 15.399L653.32 15.9547L650.558 18.6458L651.21 22.4465L647.797 20.6525L644.384 22.4465L645.034 18.6458L642.273 15.9547L646.09 15.399L647.797 11.9413Z" fill="#DBDBDB"/>
<path d="M264.519 17.1947L266.226 20.6524L270.043 21.2063L267.28 23.8992L267.932 27.6999L264.519 25.9059L261.106 27.6999L261.757 23.8992L258.996 21.2063L262.813 20.6524L264.519 17.1947Z" fill="#DBDBDB"/>
<path d="M750.51 301.153L752.216 304.61L756.033 305.166L753.272 307.857L753.924 311.658L750.51 309.864L747.097 311.658L747.749 307.857L744.986 305.166L748.803 304.61L750.51 301.153Z" fill="#DBDBDB"/>
<path d="M374.457 132.765L376.163 136.223L379.98 136.778L377.218 139.469L377.87 143.27L374.457 141.476L371.044 143.27L371.694 139.469L368.934 136.778L372.75 136.223L374.457 132.765Z" fill="#DBDBDB"/>
<path d="M34.4608 61.5441L36.1673 65.0035L39.9842 65.5575L37.2234 68.2486L37.8738 72.0511L34.4608 70.2553L31.0478 72.0511L31.7001 68.2486L28.9375 65.5575L32.7543 65.0035L34.4608 61.5441Z" fill="#DBDBDB"/>
<path d="M108.101 268.029L109.81 271.486L113.625 272.042L110.864 274.733L111.516 278.534L108.101 276.74L104.688 278.534L105.341 274.733L102.578 272.042L106.395 271.486L108.101 268.029Z" fill="#DBDBDB"/>
<path d="M34.4599 326.893L35.5141 329.032L37.8729 329.373L36.1664 331.037L36.5702 333.387L34.4599 332.277L32.3495 333.387L32.7534 331.037L31.0469 329.373L33.4056 329.032L34.4599 326.893Z" fill="#DBDBDB"/>
<path d="M274.427 109.946L275.481 112.083L277.839 112.426L276.133 114.09L276.535 116.438L274.427 115.33L272.316 116.438L272.718 114.09L271.012 112.426L273.37 112.083L274.427 109.946Z" fill="#DBDBDB"/>
<path d="M451.718 299.912L452.772 302.05L455.131 302.393L453.424 304.056L453.826 306.406L451.718 305.296L449.607 306.406L450.011 304.056L448.305 302.393L450.662 302.05L451.718 299.912Z" fill="#DBDBDB"/>
<path d="M52.9929 80.0743L54.0472 82.2115L56.4059 82.5546L54.6994 84.2182L55.1015 86.568L52.9929 85.4583L50.8826 86.568L51.2864 84.2182L49.5781 82.5546L51.9368 82.2115L52.9929 80.0743Z" fill="#DBDBDB"/>
<path d="M653.319 270.035L654.373 272.173L656.732 272.516L655.026 274.179L655.428 276.529L653.319 275.419L651.209 276.529L651.613 274.179L649.904 272.516L652.263 272.173L653.319 270.035Z" fill="#DBDBDB"/>
<path d="M122.354 370.567L123.409 372.704L125.767 373.047L124.061 374.711L124.465 377.061L122.354 375.951L120.244 377.061L120.648 374.711L118.941 373.047L121.3 372.704L122.354 370.567Z" fill="#DBDBDB"/>
<path d="M81.3972 256.503L82.4515 258.64L84.8102 258.982L83.1037 260.647L83.5057 262.995L81.3972 261.885L79.2869 262.995L79.6907 260.647L77.9824 258.982L80.3411 258.64L81.3972 256.503Z" fill="#DBDBDB"/>
<path d="M427.653 93.3885L428.707 95.5257L431.066 95.8688L429.36 97.5324L429.764 99.8822L427.653 98.7725L425.543 99.8822L425.947 97.5324L424.24 95.8688L426.599 95.5257L427.653 93.3885Z" fill="#DBDBDB"/>
<path d="M661.675 370.567L662.729 372.704L665.088 373.047L663.381 374.711L663.783 377.061L661.675 375.951L659.564 377.061L659.966 374.711L658.26 373.047L660.618 372.704L661.675 370.567Z" fill="#DBDBDB"/>
<path d="M767.649 166.593L768.704 168.73L771.062 169.073L769.356 170.737L769.758 173.085L767.649 171.977L765.539 173.085L765.943 170.737L764.236 169.073L766.593 168.73L767.649 166.593Z" fill="#DBDBDB"/>
<path d="M674.499 163.346L675.553 165.483L677.912 165.826L676.205 167.49L676.607 169.84L674.499 168.73L672.388 169.84L672.79 167.49L671.084 165.826L673.443 165.483L674.499 163.346Z" fill="#DBDBDB"/>
<path d="M606.113 69.6936C602.225 76.4825 596.706 82.1952 590.055 86.3149C583.405 90.4346 575.832 92.8315 568.022 93.2887C560.212 93.7459 552.411 92.249 545.325 88.9335C538.239 85.6179 532.091 80.5883 527.437 74.2994C522.783 68.0105 519.771 60.6608 518.672 52.915C517.573 45.1691 518.422 37.2715 521.142 29.9363C523.863 22.6011 528.369 16.0598 534.253 10.9039C540.137 5.74797 547.214 2.14017 554.843 0.406738C548.899 3.14378 543.641 7.17131 539.45 12.1963C535.259 17.2213 532.24 23.1174 530.615 29.4556C528.989 35.7937 528.797 42.4146 530.051 48.8366C531.306 55.2585 533.977 61.3199 537.869 66.5798C541.762 71.8396 546.777 76.1657 552.552 79.2433C558.326 82.3209 564.714 84.0725 571.251 84.3708C577.787 84.669 584.308 83.5064 590.339 80.9675C596.369 78.4286 601.758 74.5772 606.113 69.6936Z" fill="#DBDBDB"/>
<path d="M17.8691 592.063C262.686 590.969 537.315 590.961 782.131 592.063C537.314 593.165 262.685 593.157 17.8691 592.063Z" fill="#1A212F"/>
<path d="M791.995 608.073H8.00462C5.88167 608.073 3.84567 607.229 2.34451 605.728C0.843354 604.227 9.47826e-06 602.191 0 600.068C9.47826e-06 597.945 0.843354 595.909 2.34451 594.408C3.84567 592.907 5.88167 592.063 8.00462 592.063H791.995C794.118 592.063 796.154 592.907 797.655 594.408C799.157 595.909 800 597.945 800 600.068C800 602.191 799.157 604.227 797.655 605.728C796.154 607.229 794.118 608.073 791.995 608.073Z" fill="#455A64"/>
<path d="M138.366 623.906H632.578C634.701 623.906 636.737 624.75 638.238 626.251C639.739 627.752 640.582 629.788 640.582 631.911V631.911C640.582 634.034 639.739 636.07 638.238 637.571C636.737 639.072 634.701 639.916 632.578 639.916H138.366C136.243 639.916 134.207 639.072 132.706 637.571C131.205 636.07 130.361 634.034 130.361 631.911V631.911C130.361 629.788 131.205 627.752 132.706 626.251C134.207 624.75 136.243 623.906 138.366 623.906Z" fill="#455A64"/>
<path d="M588.182 671.593H228.134C226.011 671.593 223.975 670.75 222.473 669.249C220.972 667.748 220.129 665.712 220.129 663.589C220.129 661.466 220.972 659.43 222.473 657.928C223.975 656.427 226.011 655.584 228.134 655.584H588.182C590.305 655.584 592.341 656.427 593.842 657.928C595.344 659.43 596.187 661.466 596.187 663.589C596.187 665.712 595.344 667.748 593.842 669.249C592.341 670.75 590.305 671.593 588.182 671.593Z" fill="#455A64"/>
<path d="M67.3777 623.906H104.99C107.112 623.906 109.149 624.75 110.65 626.251C112.151 627.752 112.994 629.788 112.994 631.911V631.911C112.994 632.962 112.787 634.003 112.385 634.974C111.983 635.946 111.393 636.828 110.65 637.571C109.906 638.315 109.024 638.904 108.053 639.306C107.082 639.709 106.041 639.916 104.99 639.916H67.3775C65.2546 639.916 63.2186 639.072 61.7175 637.571C60.2164 636.07 59.373 634.034 59.373 631.911V631.911C59.373 629.788 60.2164 627.752 61.7175 626.251C63.2187 624.75 65.2547 623.906 67.3777 623.906Z" fill="#455A64"/>
<path d="M650.393 671.593H631.587C629.464 671.593 627.428 670.75 625.927 669.249C624.425 667.748 623.582 665.712 623.582 663.589C623.582 661.466 624.425 659.43 625.927 657.928C627.428 656.427 629.464 655.584 631.587 655.584H650.393C652.516 655.584 654.552 656.427 656.053 657.928C657.554 659.43 658.397 661.466 658.397 663.589C658.397 665.712 657.554 667.748 656.053 669.249C654.552 670.75 652.516 671.593 650.393 671.593Z" fill="#455A64"/>
<path d="M370.485 624.078H163.4C165.524 624.078 167.56 623.234 169.061 621.733C170.562 620.232 171.406 618.195 171.406 616.072C171.406 613.949 170.562 611.913 169.061 610.412C167.56 608.91 165.524 608.067 163.4 608.067H370.485C368.362 608.067 366.325 608.91 364.824 610.412C363.323 611.913 362.479 613.949 362.479 616.072C362.479 618.195 363.323 620.232 364.824 621.733C366.325 623.234 368.362 624.078 370.485 624.078Z" fill="#455A64"/>
<path d="M585.539 624.078H449.707C451.83 624.078 453.866 623.234 455.368 621.733C456.869 620.232 457.712 618.195 457.712 616.072C457.712 613.949 456.869 611.913 455.368 610.412C453.866 608.91 451.83 608.067 449.707 608.067H585.539C583.416 608.067 581.38 608.91 579.879 610.412C578.377 611.913 577.534 613.949 577.534 616.072C577.534 618.195 578.377 620.232 579.879 621.733C581.38 623.234 583.416 624.078 585.539 624.078Z" fill="#455A64"/>
<path d="M482.813 655.755H274.426C275.48 655.76 276.525 655.557 277.501 655.157C278.476 654.756 279.363 654.168 280.111 653.424C280.858 652.68 281.451 651.796 281.856 650.822C282.261 649.848 282.469 648.804 282.469 647.75C282.469 646.695 282.261 645.651 281.856 644.678C281.451 643.704 280.858 642.82 280.111 642.076C279.363 641.332 278.476 640.743 277.501 640.343C276.525 639.943 275.48 639.739 274.426 639.744H482.813C481.759 639.739 480.714 639.943 479.738 640.343C478.763 640.743 477.876 641.332 477.128 642.076C476.381 642.82 475.788 643.704 475.383 644.678C474.978 645.651 474.77 646.695 474.77 647.75C474.77 648.804 474.978 649.848 475.383 650.822C475.788 651.796 476.381 652.68 477.128 653.424C477.876 654.168 478.763 654.756 479.738 655.157C480.714 655.557 481.759 655.76 482.813 655.755Z" fill="#455A64"/>
<path d="M71.4434 591.922H570.01L478.994 367.561L435.218 345.404L388.751 238.223L358.104 199.315L331.095 128.348L299.469 134.396L245.399 283.089L215.207 309.678L149.944 462.834L101.635 518.225L71.4434 591.922Z" fill="#455A64"/>
<path d="M331.095 128.348L334.801 240.162L299.195 298.876L315.897 343.815L282.833 442.892L311.648 524.872L294.581 591.922H71.4434L101.635 518.225L149.944 462.834L215.207 309.678L245.399 283.089L299.469 134.396L331.095 128.348Z" fill="#37474F"/>
<path d="M322.199 414.089L347.034 363.13L345.086 341.526L354.339 326.017L365.539 370.054L331.938 414.089H322.199Z" fill="#37474F"/>
<path d="M728.554 591.958H359.404L408.156 472.185L442.612 444.532L478.162 341.397L506.906 320.205L534.23 258.163H561.214L621.172 385.195L651.676 404.974L728.554 591.958Z" fill="#37474F"/>
<path d="M359.404 591.958H519.502V489.035L555.998 416.982L538.61 341.397L561.214 258.163H534.23L506.906 320.205L478.162 341.397L442.612 444.532L408.156 472.185L359.404 591.958Z" fill="#1A212F"/>
<path d="M561.215 591.958L574.992 537.777L597.285 510.226L607.231 477.733L614.173 484.797V515.878L597.285 540.602V592.162L561.215 591.958Z" fill="#1A212F"/>
<path d="M587.693 425.06L591.396 403.325L601.333 390.845L605.989 398.262L599.78 407.953L602.575 428.638L587.693 425.06Z" fill="#1A212F"/>
<path d="M93.8768 591.513C91.8273 593.562 67.9514 594.473 59.2674 594.473C50.5833 594.473 26.7072 593.562 24.6584 591.513C22.6091 589.464 51.5258 430.762 59.2674 430.762C67.0089 430.762 95.9261 589.464 93.8768 591.513Z" fill="#1A212F"/>
<path d="M94.3568 551.072C88.4577 553.324 66.6041 562.221 61.8848 564.816C61.882 563.821 61.8748 562.827 61.872 561.832C67.143 558.73 72.4257 555.647 77.7201 552.585C83.5809 549.509 89.2745 546.125 94.7769 542.447C95.0348 542.257 94.8917 541.726 94.5355 541.875C88.7723 544.57 83.1972 547.65 77.8482 551.095C72.4764 554.245 67.1646 557.49 61.8672 560.763C61.8446 553.157 61.8125 545.552 61.7708 537.946C70.3859 534.374 78.7123 530.142 86.676 525.288C86.9482 525.125 86.7666 524.624 86.4514 524.755C77.9281 528.185 69.6755 532.253 61.7635 536.924C61.7358 532.97 61.7206 529.015 61.6784 525.06C61.4611 504.697 61.4209 484.311 60.902 463.944C66.0844 461.33 71.4207 459.025 76.5996 456.397C76.9386 456.224 76.7001 455.631 76.3363 455.773C71.0811 457.823 66.019 460.258 60.8615 462.524C60.5816 452.016 60.1805 441.514 59.5404 431.023C59.5379 430.953 59.5083 430.886 59.4578 430.838C59.4074 430.789 59.34 430.762 59.27 430.762C59.1999 430.762 59.1325 430.789 59.0821 430.838C59.0317 430.886 59.0021 430.953 58.9995 431.023C58.2717 450.528 58.3321 470.056 58.5769 489.58C53.2096 485.295 47.4863 481.505 42.023 477.349C41.8118 477.188 41.6061 477.546 41.815 477.705C47.5265 482.05 52.8695 486.867 58.5975 491.199C58.6119 492.302 58.6241 493.404 58.6396 494.507C52.8188 491.847 46.9136 489.371 41.0318 486.852C40.5713 486.654 40.1596 487.314 40.6294 487.539C46.6218 490.414 52.5934 493.341 58.6614 496.054C58.7994 505.725 58.9638 515.395 59.0894 525.06C59.3095 541.945 59.6805 558.827 60.0407 575.71C49.0552 570.153 37.9875 564.748 26.8377 559.495C26.4133 559.295 26.0443 559.894 26.4642 560.134C37.353 566.362 48.5705 571.996 60.0677 577.012C60.3665 591.04 60.6569 578.27 60.8363 592.299C60.8422 592.471 60.9145 592.634 61.038 592.753C61.1614 592.872 61.3264 592.939 61.4981 592.939C61.6697 592.939 61.8347 592.872 61.9581 592.753C62.0816 592.634 62.1539 592.471 62.1598 592.299C61.9647 574.407 61.9354 583.312 61.8864 565.419C67.6807 563.987 89.5685 554.614 94.768 552.047C95.3025 551.783 94.9251 550.855 94.3568 551.072Z" fill="#37474F"/>
<path d="M272.54 591.385C270.781 593.143 250.292 593.925 242.84 593.925C235.387 593.925 214.898 593.143 213.14 591.385C211.381 589.626 236.196 453.436 242.84 453.436C249.483 453.436 274.298 589.626 272.54 591.385Z" fill="#1A212F"/>
<path d="M272.952 556.68C267.89 558.612 249.136 566.248 245.086 568.474C245.084 567.621 245.077 566.768 245.075 565.914C249.598 563.252 254.132 560.606 258.675 557.978C263.704 555.339 268.59 552.435 273.312 549.278C273.534 549.115 273.411 548.66 273.105 548.787C268.16 551.1 263.375 553.744 258.785 556.699C254.175 559.403 249.617 562.188 245.071 564.996C245.052 558.469 245.024 551.943 244.988 545.416C252.381 542.35 259.526 538.719 266.36 534.553C266.594 534.414 266.439 533.984 266.168 534.096C258.853 537.04 251.771 540.531 244.982 544.539C244.958 541.146 244.945 537.752 244.909 534.358C244.723 516.884 244.688 499.389 244.242 481.911C248.69 479.668 253.269 477.69 257.713 475.435C258.005 475.287 257.8 474.777 257.488 474.899C252.978 476.658 248.633 478.748 244.208 480.693C243.968 471.675 243.624 462.662 243.074 453.66C243.072 453.6 243.047 453.543 243.003 453.501C242.96 453.459 242.902 453.436 242.842 453.436C242.782 453.436 242.724 453.459 242.681 453.501C242.637 453.543 242.612 453.6 242.61 453.66C241.985 470.398 242.038 487.156 242.247 503.911C237.641 500.233 232.73 496.981 228.042 493.415C227.86 493.276 227.684 493.584 227.863 493.72C232.764 497.449 237.35 501.583 242.265 505.301C242.277 506.247 242.289 507.193 242.301 508.139C237.306 505.856 232.238 503.731 227.191 501.569C226.796 501.4 226.443 501.966 226.846 502.159C231.988 504.626 237.112 507.138 242.32 509.467C242.438 517.765 242.579 526.064 242.687 534.358C242.876 548.848 243.194 563.335 243.503 577.823C234.076 573.054 224.578 568.416 215.011 563.908C214.646 563.737 214.329 564.251 214.69 564.457C224.034 569.801 233.66 574.636 243.526 578.94C243.783 590.978 244.032 581.885 244.186 593.925C244.191 594.072 244.254 594.212 244.359 594.314C244.465 594.416 244.607 594.473 244.754 594.473C244.901 594.473 245.043 594.416 245.149 594.314C245.255 594.212 245.317 594.072 245.322 593.925C245.155 578.57 245.129 584.347 245.087 568.991C250.06 567.764 268.843 559.72 273.305 557.517C273.763 557.29 273.439 556.494 272.952 556.68Z" fill="#37474F"/>
<path d="M78.9968 592.104C80.4778 593.584 97.7325 594.242 104.008 594.242C110.283 594.242 127.538 593.584 129.019 592.104C130.5 590.623 109.602 475.933 104.008 475.933C98.4135 475.933 77.5158 590.623 78.9968 592.104Z" fill="#1A212F"/>
<path d="M78.6514 562.878C82.9138 564.505 98.7069 570.935 102.118 572.81C102.119 572.091 102.125 571.373 102.126 570.654C98.3173 568.412 94.4998 566.184 90.6738 563.971C86.4384 561.748 82.3237 559.303 78.347 556.645C78.161 556.508 78.2643 556.124 78.5216 556.231C82.6866 558.178 86.7155 560.405 90.5811 562.894C94.4629 565.17 98.302 567.516 102.13 569.881C102.146 564.384 102.17 558.888 102.2 553.392C95.974 550.81 89.9568 547.752 84.2016 544.244C84.0049 544.127 84.1361 543.765 84.3639 543.859C90.5237 546.338 96.4877 549.277 102.205 552.653C102.225 549.795 102.236 546.938 102.266 544.08C102.423 529.364 102.453 514.631 102.828 499.913C99.0823 498.023 95.226 496.358 91.4833 494.459C91.2383 494.334 91.4109 493.905 91.6736 494.007C95.4717 495.489 99.1296 497.249 102.857 498.887C103.059 491.293 103.349 483.703 103.812 476.122C103.814 476.071 103.835 476.023 103.871 475.988C103.908 475.953 103.957 475.933 104.007 475.933C104.058 475.933 104.107 475.953 104.143 475.988C104.179 476.023 104.201 476.071 104.203 476.122C104.729 490.217 104.685 504.329 104.508 518.44C108.386 515.342 112.523 512.604 116.47 509.6C116.623 509.484 116.772 509.743 116.621 509.858C112.493 512.998 108.632 516.478 104.493 519.61C104.483 520.406 104.472 521.203 104.462 522C108.669 520.077 112.937 518.288 117.188 516.467C117.52 516.325 117.818 516.801 117.478 516.964C113.148 519.041 108.832 521.158 104.447 523.118C104.347 530.106 104.228 537.095 104.138 544.08C103.979 556.282 103.711 568.482 103.45 580.683C111.389 576.667 119.388 572.761 127.445 568.965C127.752 568.821 128.018 569.253 127.715 569.427C119.846 573.927 111.739 577.999 103.431 581.624C103.215 591.761 103.005 583.873 102.875 594.011C102.871 594.136 102.819 594.253 102.729 594.339C102.64 594.426 102.521 594.474 102.397 594.474C102.273 594.474 102.154 594.426 102.064 594.339C101.975 594.253 101.923 594.136 101.919 594.011C102.06 581.081 102.081 586.177 102.116 573.245C94.0276 570.454 86.0954 567.228 78.3542 563.582C77.9675 563.391 78.2402 562.721 78.6514 562.878Z" fill="#455A64"/>
<path d="M712.301 591.152C710.411 593.043 688.377 593.884 680.363 593.884C672.349 593.884 650.315 593.043 648.424 591.152C646.533 589.261 673.219 442.804 680.363 442.804C687.507 442.804 714.193 589.261 712.301 591.152Z" fill="#1A212F"/>
<path d="M712.746 553.831C707.303 555.909 687.135 564.12 682.78 566.515C682.777 565.597 682.771 564.679 682.768 563.762C687.632 560.898 692.515 558.066 697.394 555.227C702.802 552.389 708.057 549.266 713.134 545.872C713.372 545.697 713.24 545.207 712.911 545.344C707.593 547.831 702.449 550.673 697.512 553.852C692.555 556.759 687.652 559.754 682.764 562.775C682.743 555.756 682.714 548.737 682.675 541.718C690.625 538.421 698.309 534.516 705.658 530.036C705.91 529.887 705.742 529.424 705.451 529.545C697.585 532.71 689.969 536.464 682.668 540.775C682.643 537.126 682.629 533.476 682.59 529.827C682.389 511.035 682.352 492.221 681.873 473.426C686.656 471.013 691.58 468.886 696.359 466.461C696.673 466.302 696.452 465.754 696.117 465.885C691.267 467.777 686.595 470.024 681.836 472.116C681.577 462.418 681.207 452.726 680.617 443.045C680.614 442.98 680.587 442.919 680.541 442.874C680.494 442.829 680.432 442.804 680.367 442.804C680.302 442.804 680.24 442.829 680.194 442.874C680.147 442.919 680.12 442.98 680.117 443.045C679.445 461.045 679.502 479.066 679.728 497.084C674.775 493.129 669.493 489.632 664.451 485.797C664.256 485.648 664.066 485.979 664.259 486.125C669.53 490.136 674.461 494.58 679.747 498.579C679.76 499.596 679.773 500.614 679.786 501.631C674.413 499.176 668.964 496.891 663.536 494.566C663.111 494.384 662.731 494.993 663.165 495.2C668.695 497.853 674.206 500.555 679.806 503.058C679.933 511.983 680.085 520.907 680.2 529.827C680.404 545.409 680.746 560.988 681.079 576.568C670.94 571.44 660.726 566.452 650.437 561.605C650.046 561.42 649.705 561.972 650.093 562.194C660.141 567.941 670.493 573.141 681.104 577.77C681.379 590.715 681.647 580.936 681.813 593.884C681.818 594.042 681.885 594.192 681.999 594.302C682.113 594.412 682.265 594.474 682.423 594.474C682.582 594.474 682.734 594.412 682.848 594.302C682.961 594.192 683.028 594.042 683.034 593.884C682.854 577.372 682.827 583.584 682.782 567.071C688.129 565.75 708.328 557.1 713.126 554.731C713.619 554.487 713.271 553.631 712.746 553.831Z" fill="#455A64"/>
<path d="M621.159 591.152C619.268 593.043 597.234 593.884 589.22 593.884C581.206 593.884 559.172 593.043 557.281 591.152C555.39 589.261 582.076 442.804 589.22 442.804C596.364 442.804 623.05 589.261 621.159 591.152Z" fill="#1A212F"/>
<path d="M621.602 553.831C616.159 555.909 595.991 564.12 591.635 566.515C591.633 565.597 591.626 564.679 591.624 563.762C596.488 560.898 601.37 558.066 606.249 555.227C611.658 552.389 616.912 549.266 621.99 545.872C622.228 545.697 622.095 545.207 621.767 545.344C616.449 547.831 611.304 550.673 606.368 553.852C601.41 556.759 596.508 559.754 591.62 562.775C591.598 555.756 591.569 548.737 591.53 541.718C599.481 538.421 607.165 534.516 614.514 530.037C614.765 529.887 614.597 529.424 614.306 529.545C606.441 532.71 598.825 536.464 591.524 540.775C591.498 537.126 591.484 533.476 591.445 529.827C591.245 511.035 591.207 492.221 590.729 473.426C595.511 471.013 600.436 468.887 605.215 466.461C605.528 466.302 605.308 465.754 604.972 465.885C600.122 467.777 595.451 470.024 590.691 472.116C590.433 462.418 590.063 452.726 589.472 443.045C589.47 442.98 589.442 442.919 589.396 442.874C589.349 442.829 589.287 442.804 589.222 442.804C589.158 442.804 589.096 442.829 589.049 442.874C589.002 442.919 588.975 442.98 588.973 443.045C588.301 461.045 588.357 479.066 588.583 497.084C583.63 493.129 578.348 489.632 573.307 485.797C573.111 485.648 572.921 485.979 573.114 486.125C578.385 490.136 583.316 494.58 588.602 498.579C588.615 499.596 588.628 500.614 588.641 501.631C583.269 499.176 577.82 496.891 572.391 494.566C571.966 494.384 571.587 494.993 572.02 495.201C577.55 497.853 583.061 500.555 588.661 503.058C588.788 511.983 588.94 520.907 589.056 529.827C589.259 545.409 589.601 560.988 589.934 576.568C579.795 571.44 569.582 566.452 559.293 561.605C558.901 561.42 558.561 561.972 558.948 562.194C568.996 567.941 579.349 573.141 589.959 577.77C590.235 590.716 590.502 580.936 590.668 593.884C590.673 594.042 590.74 594.192 590.854 594.302C590.968 594.412 591.12 594.474 591.279 594.474C591.437 594.474 591.589 594.412 591.703 594.302C591.817 594.192 591.884 594.042 591.889 593.884C591.71 577.372 591.682 583.584 591.637 567.071C596.985 565.75 617.183 557.1 621.981 554.731C622.475 554.488 622.127 553.631 621.602 553.831Z" fill="#455A64"/>
<path d="M609.413 592.565C610.735 593.886 626.133 594.473 631.734 594.473C637.335 594.473 652.734 593.886 654.056 592.565C655.378 591.243 636.728 488.885 631.734 488.885C626.741 488.885 608.091 591.243 609.413 592.565Z" fill="#1A212F"/>
<path d="M609.103 566.481C612.908 567.933 627.002 573.672 630.047 575.346C630.048 574.704 630.052 574.063 630.054 573.421C626.655 571.421 623.248 569.433 619.833 567.457C616.053 565.474 612.381 563.291 608.832 560.919C608.665 560.796 608.758 560.454 608.988 560.55C612.704 562.288 616.3 564.275 619.75 566.496C623.215 568.528 626.641 570.621 630.057 572.732C630.072 567.827 630.093 562.921 630.12 558.015C624.563 555.711 619.193 552.982 614.057 549.851C613.881 549.746 613.998 549.424 614.202 549.508C619.699 551.72 625.022 554.344 630.124 557.357C630.142 554.806 630.152 552.255 630.179 549.705C630.319 536.571 630.345 523.423 630.68 510.287C627.338 508.601 623.896 507.114 620.556 505.419C620.337 505.308 620.491 504.925 620.725 505.017C624.115 506.339 627.38 507.91 630.706 509.371C630.886 502.594 631.145 495.82 631.558 489.054C631.56 489.009 631.579 488.966 631.611 488.935C631.644 488.903 631.687 488.886 631.732 488.886C631.778 488.886 631.821 488.903 631.854 488.935C631.886 488.966 631.905 489.009 631.907 489.054C632.377 501.634 632.338 514.229 632.18 526.821C635.641 524.058 639.333 521.613 642.856 518.932C642.993 518.829 643.125 519.06 642.99 519.163C639.307 521.965 635.861 525.071 632.166 527.866C632.157 528.577 632.148 529.288 632.139 529.999C635.893 528.283 639.702 526.686 643.496 525.061C643.793 524.934 644.058 525.36 643.755 525.505C639.89 527.359 636.039 529.247 632.125 530.997C632.036 537.234 631.93 543.471 631.849 549.705C631.707 560.595 631.468 571.484 631.235 582.372C638.321 578.788 645.459 575.302 652.65 571.914C652.924 571.785 653.162 572.171 652.891 572.326C645.868 576.343 638.633 579.977 631.218 583.212C631.026 592.26 630.838 585.013 630.722 594.061C630.718 594.172 630.672 594.277 630.592 594.354C630.513 594.431 630.406 594.474 630.295 594.474C630.185 594.474 630.078 594.431 629.999 594.354C629.919 594.277 629.873 594.172 629.869 594.061C629.995 582.521 630.013 587.275 630.045 575.734C622.826 573.243 615.747 570.364 608.838 567.111C608.493 566.94 608.737 566.341 609.103 566.481Z" fill="#37474F"/>
<path d="M181.147 592.358C182.469 593.68 197.868 594.267 203.469 594.267C209.07 594.267 224.469 593.68 225.79 592.358C227.112 591.036 208.462 488.679 203.469 488.679C198.476 488.679 179.825 591.036 181.147 592.358Z" fill="#1A212F"/>
<path d="M180.837 566.275C184.642 567.727 198.737 573.466 201.781 575.14C201.782 574.498 201.787 573.857 201.789 573.215C198.389 571.214 194.982 569.226 191.567 567.251C187.787 565.267 184.115 563.085 180.566 560.712C180.399 560.59 180.492 560.248 180.722 560.343C184.439 562.082 188.034 564.068 191.484 566.29C194.949 568.321 198.375 570.414 201.792 572.526C201.806 567.62 201.827 562.715 201.854 557.809C196.298 555.505 190.927 552.776 185.791 549.645C185.616 549.54 185.733 549.217 185.936 549.301C191.433 551.514 196.756 554.138 201.859 557.15C201.876 554.6 201.886 552.049 201.913 549.499C202.053 536.365 202.08 523.216 202.414 510.081C199.072 508.394 195.63 506.908 192.29 505.213C192.071 505.102 192.225 504.719 192.459 504.811C195.849 506.133 199.114 507.704 202.44 509.165C202.621 502.388 202.88 495.614 203.293 488.848C203.294 488.803 203.313 488.76 203.346 488.728C203.378 488.697 203.422 488.679 203.467 488.679C203.512 488.679 203.555 488.697 203.588 488.728C203.621 488.76 203.64 488.803 203.641 488.848C204.111 501.428 204.072 514.022 203.914 526.615C207.376 523.851 211.067 521.407 214.591 518.726C214.727 518.623 214.86 518.854 214.725 518.956C211.041 521.759 207.595 524.865 203.901 527.659C203.892 528.371 203.883 529.082 203.874 529.793C207.628 528.077 211.436 526.48 215.23 524.855C215.527 524.728 215.792 525.154 215.489 525.299C211.625 527.153 207.773 529.041 203.86 530.791C203.771 537.028 203.665 543.265 203.583 549.499C203.441 560.389 203.203 571.277 202.969 582.166C210.055 578.582 217.194 575.096 224.385 571.708C224.658 571.579 224.897 571.965 224.626 572.12C217.603 576.136 210.368 579.77 202.952 583.006C202.76 592.053 202.573 585.013 202.457 594.061C202.453 594.172 202.406 594.277 202.327 594.354C202.247 594.431 202.141 594.474 202.03 594.474C201.919 594.474 201.813 594.431 201.733 594.354C201.654 594.277 201.607 594.172 201.603 594.061C201.729 582.521 201.748 587.069 201.78 575.528C194.561 573.037 187.481 570.158 180.572 566.904C180.227 566.734 180.471 566.135 180.837 566.275Z" fill="#37474F"/>
<path d="M313.735 592.152C315.056 593.474 330.456 594.061 336.057 594.061C341.658 594.061 357.057 593.474 358.379 592.152C359.7 590.83 341.049 488.473 336.057 488.473C331.064 488.473 312.413 590.83 313.735 592.152Z" fill="#1A212F"/>
<path d="M313.424 566.069C317.228 567.521 331.323 573.26 334.367 574.933C334.369 574.292 334.373 573.651 334.375 573.009C330.975 571.008 327.568 569.02 324.154 567.045C320.373 565.061 316.701 562.879 313.152 560.506C312.986 560.384 313.079 560.042 313.308 560.137C317.025 561.876 320.621 563.862 324.071 566.084C327.536 568.115 330.961 570.208 334.378 572.32C334.393 567.414 334.413 562.509 334.44 557.603C328.884 555.299 323.514 552.57 318.377 549.439C318.202 549.334 318.319 549.011 318.522 549.095C324.02 551.308 329.342 553.932 334.445 556.944C334.463 554.394 334.473 551.843 334.5 549.293C334.64 536.159 334.666 523.01 335.001 509.875C331.658 508.188 328.216 506.702 324.876 505.007C324.657 504.896 324.811 504.513 325.046 504.604C328.435 505.927 331.7 507.497 335.026 508.959C335.207 502.181 335.466 495.408 335.879 488.642C335.88 488.597 335.899 488.554 335.932 488.523C335.964 488.491 336.008 488.474 336.053 488.474C336.098 488.474 336.142 488.491 336.174 488.523C336.207 488.554 336.226 488.597 336.227 488.642C336.697 501.222 336.658 513.816 336.5 526.409C339.962 523.645 343.653 521.201 347.177 518.52C347.313 518.417 347.446 518.648 347.311 518.75C343.627 521.553 340.181 524.659 336.487 527.453C336.478 528.164 336.469 528.876 336.46 529.587C340.214 527.871 344.023 526.274 347.816 524.649C348.113 524.522 348.378 524.948 348.076 525.093C344.211 526.947 340.359 528.835 336.445 530.585C336.357 536.822 336.251 543.059 336.17 549.293C336.028 560.183 335.788 571.071 335.556 581.96C342.641 578.376 349.78 574.89 356.971 571.502C357.244 571.373 357.482 571.759 357.212 571.914C350.189 575.93 342.954 579.564 335.539 582.8C335.346 591.847 335.159 585.013 335.043 594.061C335.04 594.172 334.993 594.278 334.913 594.355C334.834 594.433 334.727 594.476 334.616 594.476C334.505 594.476 334.398 594.433 334.318 594.355C334.239 594.278 334.192 594.172 334.189 594.061C334.315 582.521 334.334 586.863 334.366 575.322C327.147 572.831 320.067 569.952 313.158 566.698C312.813 566.528 313.057 565.929 313.424 566.069Z" fill="#37474F"/>
<path d="M730.737 592.152C732.058 593.474 747.458 594.061 753.058 594.061C758.659 594.061 774.058 593.474 775.38 592.152C776.702 590.83 758.051 488.473 753.058 488.473C748.065 488.473 729.415 590.83 730.737 592.152Z" fill="#1A212F"/>
<path d="M730.427 566.069C734.232 567.521 748.327 573.26 751.371 574.933C751.373 574.292 751.377 573.651 751.379 573.009C747.979 571.008 744.572 569.02 741.157 567.045C737.377 565.061 733.705 562.878 730.156 560.506C729.99 560.384 730.083 560.041 730.312 560.137C734.029 561.875 737.624 563.862 741.075 566.084C744.539 568.115 747.965 570.208 751.381 572.32C751.396 567.414 751.417 562.509 751.444 557.603C745.888 555.299 740.517 552.57 735.381 549.439C735.206 549.334 735.323 549.011 735.526 549.095C741.023 551.308 746.346 553.932 751.449 556.944C751.467 554.394 751.477 551.843 751.504 549.293C751.644 536.159 751.67 523.01 752.005 509.875C748.662 508.188 745.22 506.702 741.88 505.007C741.661 504.896 741.815 504.513 742.05 504.604C745.439 505.927 748.704 507.497 752.03 508.959C752.211 502.181 752.47 495.408 752.882 488.642C752.884 488.597 752.903 488.554 752.936 488.522C752.968 488.491 753.012 488.473 753.057 488.473C753.102 488.473 753.145 488.491 753.178 488.522C753.21 488.554 753.23 488.597 753.231 488.642C753.701 501.222 753.662 513.816 753.504 526.409C756.966 523.645 760.657 521.201 764.18 518.52C764.317 518.417 764.45 518.648 764.315 518.75C760.631 521.553 757.185 524.659 753.491 527.453C753.482 528.164 753.473 528.876 753.464 529.587C757.218 527.871 761.026 526.274 764.82 524.649C765.117 524.522 765.382 524.948 765.08 525.093C761.215 526.946 757.363 528.835 753.449 530.585C753.361 536.822 753.255 543.059 753.174 549.293C753.032 560.183 752.792 571.071 752.56 581.96C759.645 578.376 766.784 574.89 773.975 571.502C774.248 571.373 774.486 571.759 774.216 571.914C767.193 575.93 759.958 579.564 752.543 582.8C752.35 591.847 752.163 585.013 752.047 594.061C752.044 594.172 751.997 594.278 751.917 594.355C751.838 594.433 751.731 594.476 751.62 594.476C751.509 594.476 751.402 594.433 751.322 594.355C751.243 594.278 751.196 594.172 751.193 594.061C751.319 582.521 751.338 586.863 751.37 575.322C744.151 572.831 737.071 569.952 730.162 566.698C729.817 566.528 730.061 565.929 730.427 566.069Z" fill="#37474F"/>
<path d="M564.809 584.79H562.158V592.234H564.809V584.79Z" fill="#1A212F"/>
<path d="M436.852 584.79H434.201V592.234H436.852V584.79Z" fill="#1A212F"/>
<path d="M434.201 592.236L471.54 536.704L509.868 592.236H434.201Z" fill="#F4694D"/>
<path opacity="0.1" d="M434.201 592.236L471.54 536.704L509.868 592.236H434.201Z" fill="#1A212F"/>
<path d="M471.541 536.703H526.29L564.333 592.235H509.868L471.541 536.703Z" fill="#F4694D"/>
<path d="M494.875 546.808H519.899L527.509 557.917H502.543L494.875 546.808Z" fill="#F9FBFC"/>
<path opacity="0.3" d="M459.271 592.235H482.819L471.54 536.703L459.271 592.235Z" fill="#1A212F"/>
<path d="M511.192 584.79H508.541V592.234H511.192V584.79Z" fill="#1A212F"/>
<path d="M471.539 536.703C462.496 554.742 452.016 574.574 442.227 592.234C451.287 574.184 461.745 554.35 471.539 536.703Z" fill="#F9FBFC"/>
<path d="M471.539 536.703C481.24 554.249 491.6 573.984 500.567 591.932C490.867 574.365 480.492 554.648 471.539 536.703Z" fill="#F9FBFC"/>
<path d="M459.272 592.234C457.572 586.418 454.144 581.257 449.441 577.435L471.541 536.703L459.272 592.234Z" fill="#F4694D"/>
<path d="M482.818 592.234L471.539 536.703L494.556 579.557C491.483 580.097 488.671 581.629 486.551 583.918C484.432 586.208 483.12 589.129 482.818 592.234Z" fill="#F4694D"/>
<path d="M269.658 201.749C269.658 201.73 269.658 201.73 269.639 201.73C269.2 201.234 268.732 200.766 268.236 200.327C268.236 200.308 268.236 200.308 268.217 200.308C267.779 199.813 267.31 199.344 266.814 198.905C266.814 198.886 266.814 198.886 266.796 198.886C266.357 198.391 265.888 197.922 265.393 197.484C265.393 197.464 265.393 197.464 265.374 197.464C264.935 196.969 264.466 196.5 263.971 196.062C263.971 196.043 263.971 196.043 263.952 196.043C263.513 195.547 263.045 195.079 262.549 194.64C262.549 194.621 262.549 194.621 262.53 194.621C262.091 194.125 261.623 193.657 261.127 193.218C261.127 193.199 261.127 193.199 261.108 193.199C260.669 192.703 260.201 192.235 259.705 191.796C259.705 191.777 259.705 191.777 259.686 191.777C259.247 191.281 258.779 190.813 258.283 190.374C258.283 190.355 258.283 190.355 258.264 190.355C257.826 189.86 257.357 189.391 256.861 188.952C256.861 188.933 256.861 188.933 256.843 188.933C255.396 187.352 253.714 186.002 251.857 184.933V44.4921C251.857 43.7526 251.496 43.3735 251.496 42.6342C251.59 41.8675 251.459 41.0901 251.117 40.3972C251.117 40.0178 250.757 39.2786 250.757 38.8994C250.563 38.135 250.31 37.3871 249.999 36.6624C249.605 36.2506 249.347 35.7279 249.259 35.1647C248.837 34.4869 248.335 33.863 247.762 33.3067C247.383 32.9275 247.022 32.1883 246.643 31.8091L245.145 30.3115C245.145 30.084 244.861 29.8564 244.539 29.7048C244.349 29.5151 244.103 29.2685 243.799 28.9652L243.724 28.8895C243.724 28.662 243.439 28.4345 243.117 28.283C242.927 28.0932 242.681 27.8468 242.377 27.5436L242.302 27.4676C242.302 27.2402 242.017 27.0129 241.695 26.861C241.506 26.6714 241.259 26.425 240.956 26.1217L240.88 26.046C240.88 25.8185 240.596 25.5908 240.273 25.4391C240.084 25.2495 239.837 25.0031 239.534 24.6997L239.458 24.6241C239.458 24.3965 239.174 24.169 238.851 24.0175C238.662 23.8277 238.415 23.5812 238.112 23.278L238.036 23.2021C238.036 22.9746 237.752 22.7471 237.43 22.5954C237.24 22.4057 236.994 22.1593 236.69 21.8562L236.614 21.7803C236.614 21.553 236.33 21.3253 236.008 21.1736C235.818 20.984 235.572 20.7375 235.268 20.4342L235.193 20.3586C235.193 20.1309 234.908 19.9035 234.586 19.7519C234.396 19.5622 234.15 19.3156 233.846 19.0123L233.771 18.9366C233.771 18.7091 233.486 18.4816 233.164 18.3299C232.975 18.1401 232.728 17.8937 232.425 17.5907L232.349 17.5147C232.349 17.2872 232.064 17.0598 231.742 16.9081L230.927 16.0931C230.927 15.7328 230.188 15.3535 229.809 15.3535C229.811 15.3045 229.804 15.2556 229.787 15.2096C229.77 15.1636 229.744 15.1215 229.71 15.086C229.677 15.0505 229.636 15.0222 229.591 15.003C229.546 14.9838 229.497 14.974 229.448 14.9743C228.69 14.614 228.311 14.2348 227.571 13.8558C227.192 13.4767 226.453 13.1164 225.713 12.3582C225.334 12.3582 224.595 11.998 224.216 11.998C223.476 11.6188 222.339 11.6188 221.979 11.2396C221.332 11.294 220.683 11.1693 220.102 10.8794H213.77C213.326 11.1665 212.798 11.2936 212.272 11.2396C211.154 11.6188 210.415 11.6188 210.035 11.998C209.296 11.998 208.917 12.3582 208.538 13.1164C207.734 13.1315 206.955 13.3893 206.301 13.8558C205.94 14.2348 205.182 14.614 204.803 14.9743C204.307 15.5223 203.661 15.9116 202.945 16.0931C202.674 16.6608 202.294 17.1697 201.826 17.5907C201.447 17.9697 201.447 18.3299 201.087 18.3299L63.0348 189.976C59.7632 193.916 58.1314 198.963 58.4772 204.073C58.823 209.183 61.1199 213.964 64.8927 217.427C65.3281 217.938 65.8036 218.414 66.3147 218.849C66.7499 219.36 67.2254 219.836 67.7365 220.271C68.1719 220.782 68.6473 221.257 69.1582 221.693C69.5937 222.204 70.0692 222.679 70.5802 223.115C71.0155 223.626 71.491 224.101 72.0021 224.537C72.4375 225.048 72.9129 225.523 73.4239 225.958C73.8593 226.469 74.3347 226.945 74.8457 227.38C75.281 227.891 75.7565 228.367 76.2676 228.802C76.703 229.313 77.1784 229.789 77.6894 230.224C78.5702 231.217 79.5483 232.119 80.609 232.916C84.116 235.962 88.6497 237.562 93.2918 237.39H196.613V251.533C196.58 254.413 197.157 257.267 198.307 259.907C199.458 262.548 201.155 264.914 203.286 266.851L203.343 266.908C203.779 267.382 204.234 267.837 204.708 268.273C204.727 268.292 204.746 268.292 204.746 268.311C205.183 268.795 205.645 269.257 206.13 269.695L206.187 269.751C206.623 270.226 207.078 270.681 207.552 271.117C207.571 271.135 207.59 271.135 207.59 271.154C208.027 271.639 208.489 272.101 208.974 272.538L209.031 272.595C209.466 273.069 209.921 273.524 210.395 273.96C210.415 273.979 210.433 273.979 210.433 273.998C210.871 274.483 211.333 274.945 211.817 275.382L211.874 275.439C212.31 275.913 212.765 276.368 213.239 276.804C213.258 276.823 213.277 276.823 213.277 276.842C213.714 277.326 214.176 277.788 214.661 278.226L214.718 278.283C215.154 278.757 215.609 279.212 216.083 279.648C216.102 279.666 216.121 279.666 216.121 279.685C218.934 282.718 222.594 284.835 226.626 285.761C230.658 286.686 234.875 286.377 238.729 284.874C242.583 283.372 245.895 280.744 248.237 277.334C250.578 273.924 251.839 269.888 251.857 265.751V237.39H255.591C259.768 237.488 263.873 236.303 267.354 233.993C270.836 231.684 273.524 228.362 275.058 224.477C276.592 220.591 276.896 216.328 275.931 212.264C274.965 208.2 272.776 204.53 269.658 201.749ZM196.613 121.841V182.146H148.024L196.613 121.841Z" fill="#F4694D"/>
<path opacity="0.1" d="M269.658 201.749C269.658 201.73 269.658 201.73 269.639 201.73C269.2 201.234 268.732 200.766 268.236 200.327C268.236 200.308 268.236 200.308 268.217 200.308C267.779 199.813 267.31 199.344 266.814 198.905C266.814 198.886 266.814 198.886 266.796 198.886C266.357 198.391 265.888 197.922 265.393 197.484C265.393 197.464 265.393 197.464 265.374 197.464C264.935 196.969 264.466 196.5 263.971 196.062C263.971 196.043 263.971 196.043 263.952 196.043C263.513 195.547 263.045 195.079 262.549 194.64C262.549 194.621 262.549 194.621 262.53 194.621C262.091 194.125 261.623 193.657 261.127 193.218C261.127 193.199 261.127 193.199 261.108 193.199C260.669 192.703 260.201 192.235 259.705 191.796C259.705 191.777 259.705 191.777 259.686 191.777C259.247 191.281 258.779 190.813 258.283 190.374C258.283 190.355 258.283 190.355 258.264 190.355C257.826 189.86 257.357 189.391 256.861 188.952C256.861 188.933 256.861 188.933 256.843 188.933C255.396 187.352 253.714 186.002 251.857 184.933V44.4921C251.857 43.7526 251.496 43.3735 251.496 42.6342C251.59 41.8675 251.459 41.0901 251.117 40.3972C251.117 40.0178 250.757 39.2786 250.757 38.8994C250.563 38.135 250.31 37.3871 249.999 36.6624C249.605 36.2506 249.347 35.7279 249.259 35.1647C248.837 34.4869 248.335 33.863 247.762 33.3067C247.383 32.9275 247.022 32.1883 246.643 31.8091L245.145 30.3115C245.145 30.084 244.861 29.8564 244.539 29.7048C244.349 29.5151 244.103 29.2685 243.799 28.9652L243.724 28.8895C243.724 28.662 243.439 28.4345 243.117 28.283C242.927 28.0932 242.681 27.8468 242.377 27.5436L242.302 27.4676C242.302 27.2402 242.017 27.0129 241.695 26.861C241.506 26.6714 241.259 26.425 240.956 26.1217L240.88 26.046C240.88 25.8185 240.596 25.5908 240.273 25.4391C240.084 25.2495 239.837 25.0031 239.534 24.6997L239.458 24.6241C239.458 24.3965 239.174 24.169 238.851 24.0175C238.662 23.8277 238.415 23.5812 238.112 23.278L238.036 23.2021C238.036 22.9746 237.752 22.7471 237.43 22.5954C237.24 22.4057 236.994 22.1593 236.69 21.8562L236.614 21.7803C236.614 21.553 236.33 21.3253 236.008 21.1736C235.818 20.984 235.572 20.7375 235.268 20.4342L235.193 20.3586C235.193 20.1309 234.908 19.9035 234.586 19.7519C234.396 19.5622 234.15 19.3156 233.846 19.0123L233.771 18.9366C233.771 18.7091 233.486 18.4816 233.164 18.3299C232.975 18.1401 232.728 17.8937 232.425 17.5907L232.349 17.5147C232.349 17.2872 232.064 17.0598 231.742 16.9081L230.927 16.0931C230.927 15.7328 230.188 15.3535 229.809 15.3535C229.811 15.3045 229.804 15.2556 229.787 15.2096C229.77 15.1636 229.744 15.1215 229.71 15.086C229.677 15.0505 229.636 15.0222 229.591 15.003C229.546 14.9838 229.497 14.974 229.448 14.9743C228.69 14.614 228.311 14.2348 227.571 13.8558C227.192 13.4767 226.453 13.1164 225.713 12.3582C225.334 12.3582 224.595 11.998 224.216 11.998C223.476 11.6188 222.339 11.6188 221.979 11.2396C221.332 11.294 220.683 11.1693 220.102 10.8794H213.77C213.326 11.1665 212.798 11.2936 212.272 11.2396C211.154 11.6188 210.415 11.6188 210.035 11.998C209.296 11.998 208.917 12.3582 208.538 13.1164C207.734 13.1315 206.955 13.3893 206.301 13.8558C205.94 14.2348 205.182 14.614 204.803 14.9743C204.307 15.5223 203.661 15.9116 202.945 16.0931C202.674 16.6608 202.294 17.1697 201.826 17.5907C201.447 17.9697 201.447 18.3299 201.087 18.3299L63.0348 189.976C59.7632 193.916 58.1314 198.963 58.4772 204.073C58.823 209.183 61.1199 213.964 64.8927 217.427C65.3281 217.938 65.8036 218.414 66.3147 218.849C66.7499 219.36 67.2254 219.836 67.7365 220.271C68.1719 220.782 68.6473 221.257 69.1582 221.693C69.5937 222.204 70.0692 222.679 70.5802 223.115C71.0155 223.626 71.491 224.101 72.0021 224.537C72.4375 225.048 72.9129 225.523 73.4239 225.958C73.8593 226.469 74.3347 226.945 74.8457 227.38C75.281 227.891 75.7565 228.367 76.2676 228.802C76.703 229.313 77.1784 229.789 77.6894 230.224C78.5702 231.217 79.5483 232.119 80.609 232.916C84.116 235.962 88.6497 237.562 93.2918 237.39H196.613V251.533C196.58 254.413 197.157 257.267 198.307 259.907C199.458 262.548 201.155 264.914 203.286 266.851L203.343 266.908C203.779 267.382 204.234 267.837 204.708 268.273C204.727 268.292 204.746 268.292 204.746 268.311C205.183 268.795 205.645 269.257 206.13 269.695L206.187 269.751C206.623 270.226 207.078 270.681 207.552 271.117C207.571 271.135 207.59 271.135 207.59 271.154C208.027 271.639 208.489 272.101 208.974 272.538L209.031 272.595C209.466 273.069 209.921 273.524 210.395 273.96C210.415 273.979 210.433 273.979 210.433 273.998C210.871 274.483 211.333 274.945 211.817 275.382L211.874 275.439C212.31 275.913 212.765 276.368 213.239 276.804C213.258 276.823 213.277 276.823 213.277 276.842C213.714 277.326 214.176 277.788 214.661 278.226L214.718 278.283C215.154 278.757 215.609 279.212 216.083 279.648C216.102 279.666 216.121 279.666 216.121 279.685C218.934 282.718 222.594 284.835 226.626 285.761C230.658 286.686 234.875 286.377 238.729 284.874C242.583 283.372 245.895 280.744 248.237 277.334C250.578 273.924 251.839 269.888 251.857 265.751V237.39H255.591C259.768 237.488 263.873 236.303 267.354 233.993C270.836 231.684 273.524 228.362 275.058 224.477C276.592 220.591 276.896 216.328 275.931 212.264C274.965 208.2 272.776 204.53 269.658 201.749ZM196.613 121.841V182.146H148.024L196.613 121.841Z" fill="#1A212F"/>
<path d="M262.273 202.658C262.27 205.384 261.725 208.082 260.669 210.595C259.613 213.108 258.068 215.386 256.123 217.295C254.178 219.205 251.873 220.709 249.341 221.719C246.81 222.729 244.102 223.225 241.377 223.179H237.647V251.538C237.632 256.97 235.463 262.175 231.616 266.011C227.77 269.847 222.559 272.001 217.126 272.001C211.694 272.001 206.483 269.847 202.636 266.011C198.789 262.175 196.621 256.97 196.605 251.538V223.179H79.0725C74.4282 223.352 69.8922 221.751 66.3853 218.701C64.224 217.075 62.4154 215.028 61.0691 212.682C59.7228 210.336 58.8668 207.742 58.5529 205.055C58.2391 202.369 58.474 199.647 59.2433 197.054C60.0127 194.461 61.3005 192.052 63.0287 189.971L201.083 18.3362C201.456 18.3362 201.456 17.9626 201.829 17.5912C202.291 17.1658 202.671 16.6597 202.95 16.0977C203.662 15.904 204.307 15.5169 204.813 14.9793C205.186 14.606 205.933 14.2324 206.307 13.8589C206.96 13.3911 207.739 13.1308 208.543 13.112C208.917 12.3672 209.29 11.9939 210.037 11.9939C210.411 11.6205 211.157 11.6205 212.278 11.2466C212.803 11.3021 213.33 11.1699 213.767 10.8735H220.112C220.685 11.1749 221.334 11.3044 221.979 11.2466C222.348 11.6205 223.468 11.6205 224.215 11.9939C224.589 11.9939 225.336 12.3672 225.709 12.3672C226.456 13.112 227.199 13.4856 227.572 13.8589C228.319 14.2324 228.693 14.606 229.439 14.9793C229.489 14.9783 229.538 14.9872 229.584 15.0056C229.629 15.0241 229.671 15.0515 229.706 15.0864C229.741 15.1214 229.768 15.163 229.787 15.2088C229.805 15.2546 229.814 15.3036 229.813 15.353C230.186 15.353 230.933 15.7241 230.933 16.0977C231.68 16.8445 232.049 17.2181 232.423 17.5912C232.796 17.9626 233.17 18.7099 233.543 19.083C234.112 19.6446 234.613 20.2706 235.037 20.9481C235.13 21.5099 235.39 22.0306 235.784 22.4422C236.09 23.1682 236.339 23.9166 236.531 24.6808C236.531 25.0521 236.9 25.7987 236.9 26.1723C237.236 26.8674 237.366 27.6444 237.273 28.411C237.273 29.1576 237.647 29.5314 237.647 30.2762V182.137H241.377C246.863 182.107 252.139 184.248 256.054 188.092C259.968 191.936 262.204 197.172 262.273 202.658ZM196.605 89.9752L122.355 182.137H196.605V89.9752Z" fill="#F4694D"/>
<path d="M480.537 66.5021C476.331 60.0679 471.437 54.1115 465.939 48.7386C465.739 48.5158 465.524 48.3068 465.295 48.1131C465.236 48.0452 465.173 47.9818 465.105 47.9235C464.938 47.731 464.761 47.5474 464.574 47.3736C464.1 46.8617 463.589 46.3878 463.096 45.8948C463.056 45.8516 463.012 45.8134 462.963 45.7811C462.792 45.6105 462.622 45.4399 462.451 45.2694C462.393 45.2015 462.329 45.1381 462.262 45.0798C462.094 44.8873 461.917 44.7038 461.731 44.5299C461.257 44.0182 460.745 43.5441 460.252 43.0513C460.213 43.0079 460.168 42.9697 460.119 42.9375C459.949 42.7668 459.778 42.5962 459.607 42.4257C459.549 42.3578 459.486 42.2943 459.418 42.2359C459.251 42.0435 459.074 41.86 458.887 41.6862C458.413 41.1743 457.901 40.7004 457.408 40.2074C457.369 40.1643 457.324 40.1261 457.276 40.0938C457.105 39.9233 456.934 39.7526 456.764 39.5818C456.705 39.514 456.642 39.4507 456.574 39.3924C456.407 39.1999 456.23 39.0164 456.043 38.8426C455.569 38.3306 455.057 37.8567 454.565 37.3637C454.525 37.3205 454.481 37.2823 454.432 37.2499C454.276 37.0654 454.105 36.8943 453.92 36.7383C453.862 36.6704 453.798 36.607 453.731 36.5485C438.754 21.0978 419.208 10.8794 397.292 10.8794C367.813 10.8794 343.566 28.4156 327.887 52.2837C311.47 76.1709 302.901 107.148 302.521 141.462C302.901 175.416 311.47 206.754 327.887 230.641C332.09 236.96 336.931 242.83 342.333 248.158C342.58 248.405 342.826 248.632 343.073 248.879C343.113 248.9 343.146 248.933 343.167 248.973C343.603 249.428 344.058 249.865 344.494 250.3C344.722 250.547 344.949 250.774 345.177 251.002C345.423 251.248 345.67 251.476 345.916 251.722C345.957 251.744 345.99 251.777 346.011 251.817C346.447 252.272 346.902 252.708 347.338 253.144C347.566 253.391 347.793 253.618 348.021 253.846C348.267 254.092 348.514 254.32 348.76 254.566C348.8 254.588 348.833 254.621 348.855 254.661C349.291 255.116 349.746 255.552 350.182 255.988C350.409 256.234 350.637 256.462 350.864 256.689C351.111 256.936 351.357 257.163 351.604 257.41C351.644 257.431 351.677 257.464 351.698 257.505C352.134 257.96 352.59 258.396 353.026 258.832C353.253 259.078 353.481 259.306 353.708 259.533C353.955 259.779 354.201 260.007 354.447 260.254C354.488 260.275 354.521 260.308 354.542 260.348C354.978 260.803 355.433 261.239 355.869 261.675C370.618 276.406 389.633 286.283 411.511 286.283C440.232 286.283 464.859 268.368 480.537 244.86C496.576 220.973 505.543 189.635 505.543 155.681C505.543 121.367 496.576 90.3896 480.537 66.5021ZM431.986 207.512C421.161 223.551 408.857 230.641 397.292 230.641C390.19 230.481 383.313 228.115 377.614 223.873C377.083 223.191 376.571 222.47 376.059 221.731C365.614 206.052 358.144 182.184 358.144 155.681C358.144 128.817 365.614 105.309 376.059 89.2708C387.264 73.5924 399.947 66.1421 411.511 66.5021C418.252 66.468 424.823 68.6162 430.241 72.6257C430.829 73.4219 431.417 74.2182 431.986 75.0523C442.432 91.0909 449.901 114.599 449.901 141.462C449.901 167.966 442.432 191.834 431.986 207.512Z" fill="#F4694D"/>
<path opacity="0.1" d="M480.537 66.5021C476.331 60.0679 471.437 54.1115 465.939 48.7386C465.739 48.5158 465.524 48.3068 465.295 48.1131C465.236 48.0452 465.173 47.9818 465.105 47.9235C464.938 47.731 464.761 47.5474 464.574 47.3736C464.1 46.8617 463.589 46.3878 463.096 45.8948C463.056 45.8516 463.012 45.8134 462.963 45.7811C462.792 45.6105 462.622 45.4399 462.451 45.2694C462.393 45.2015 462.329 45.1381 462.262 45.0798C462.094 44.8873 461.917 44.7038 461.731 44.5299C461.257 44.0182 460.745 43.5441 460.252 43.0513C460.213 43.0079 460.168 42.9697 460.119 42.9375C459.949 42.7668 459.778 42.5962 459.607 42.4257C459.549 42.3578 459.486 42.2943 459.418 42.2359C459.251 42.0435 459.074 41.86 458.887 41.6862C458.413 41.1743 457.901 40.7004 457.408 40.2074C457.369 40.1643 457.324 40.1261 457.276 40.0938C457.105 39.9233 456.934 39.7526 456.764 39.5818C456.705 39.514 456.642 39.4507 456.574 39.3924C456.407 39.1999 456.23 39.0164 456.043 38.8426C455.569 38.3306 455.057 37.8567 454.565 37.3637C454.525 37.3205 454.481 37.2823 454.432 37.2499C454.276 37.0654 454.105 36.8943 453.92 36.7383C453.862 36.6704 453.798 36.607 453.731 36.5485C438.754 21.0978 419.208 10.8794 397.292 10.8794C367.813 10.8794 343.566 28.4156 327.887 52.2837C311.47 76.1709 302.901 107.148 302.521 141.462C302.901 175.416 311.47 206.754 327.887 230.641C332.09 236.96 336.931 242.83 342.333 248.158C342.58 248.405 342.826 248.632 343.073 248.879C343.113 248.9 343.146 248.933 343.167 248.973C343.603 249.428 344.058 249.865 344.494 250.3C344.722 250.547 344.949 250.774 345.177 251.002C345.423 251.248 345.67 251.476 345.916 251.722C345.957 251.744 345.99 251.777 346.011 251.817C346.447 252.272 346.902 252.708 347.338 253.144C347.566 253.391 347.793 253.618 348.021 253.846C348.267 254.092 348.514 254.32 348.76 254.566C348.8 254.588 348.833 254.621 348.855 254.661C349.291 255.116 349.746 255.552 350.182 255.988C350.409 256.234 350.637 256.462 350.864 256.689C351.111 256.936 351.357 257.163 351.604 257.41C351.644 257.431 351.677 257.464 351.698 257.505C352.134 257.96 352.59 258.396 353.026 258.832C353.253 259.078 353.481 259.306 353.708 259.533C353.955 259.779 354.201 260.007 354.447 260.254C354.488 260.275 354.521 260.308 354.542 260.348C354.978 260.803 355.433 261.239 355.869 261.675C370.618 276.406 389.633 286.283 411.511 286.283C440.232 286.283 464.859 268.368 480.537 244.86C496.576 220.973 505.543 189.635 505.543 155.681C505.543 121.367 496.576 90.3896 480.537 66.5021ZM431.986 207.512C421.161 223.551 408.857 230.641 397.292 230.641C390.19 230.481 383.313 228.115 377.614 223.873C377.083 223.191 376.571 222.47 376.059 221.731C365.614 206.052 358.144 182.184 358.144 155.681C358.144 128.817 365.614 105.309 376.059 89.2708C387.264 73.5924 399.947 66.1421 411.511 66.5021C418.252 66.468 424.823 68.6162 430.241 72.6257C430.829 73.4219 431.417 74.2182 431.986 75.0523C442.432 91.0909 449.901 114.599 449.901 141.462C449.901 167.966 442.432 191.834 431.986 207.512Z" fill="#1A212F"/>
<path d="M302.518 141.467C302.891 107.139 311.472 76.1703 327.891 52.2907C343.559 28.411 367.812 10.8735 397.289 10.8735C426.022 10.8735 450.644 28.411 466.321 52.2907C482.362 76.1703 491.316 107.139 491.316 141.467C491.316 175.419 482.362 206.762 466.321 230.641C450.644 254.15 426.022 272.059 397.289 272.059C367.812 272.059 343.559 254.15 327.891 230.641C311.472 206.762 302.891 175.419 302.518 141.467ZM449.897 141.467C449.897 114.602 442.436 91.0956 431.988 75.0499C421.167 59.3798 408.858 51.9173 397.289 52.2907C385.721 51.9173 373.036 59.3798 361.846 75.0499C351.397 91.0956 343.932 114.602 343.932 141.467C343.932 167.959 351.397 191.839 361.846 207.509C373.036 223.552 385.721 230.641 397.289 230.641C408.858 230.641 421.167 223.552 431.988 207.509C442.436 191.839 449.897 167.959 449.897 141.467Z" fill="#F4694D"/>
<path d="M734.738 201.749C734.738 201.73 734.738 201.73 734.719 201.73C734.264 201.237 733.79 200.763 733.316 200.327C733.316 200.308 733.316 200.308 733.297 200.308C732.842 199.815 732.368 199.341 731.894 198.905C731.894 198.886 731.894 198.886 731.875 198.886C731.42 198.393 730.946 197.919 730.472 197.484C730.472 197.464 730.472 197.464 730.453 197.464C729.998 196.972 729.524 196.498 729.05 196.062C729.05 196.043 729.05 196.043 729.031 196.043C728.576 195.55 728.102 195.076 727.628 194.64C727.628 194.621 727.628 194.621 727.609 194.621C727.155 194.128 726.68 193.654 726.207 193.218C726.207 193.199 726.207 193.199 726.188 193.199C725.733 192.706 725.259 192.232 724.785 191.796C724.785 191.777 724.785 191.777 724.766 191.777C724.311 191.284 723.837 190.81 723.363 190.374C723.363 190.355 723.363 190.355 723.344 190.355C722.889 189.862 722.415 189.388 721.941 188.952C721.941 188.933 721.941 188.933 721.922 188.933C720.474 187.346 718.785 185.996 716.917 184.933V44.4921C716.917 43.7526 716.557 43.3735 716.557 42.6342C716.651 41.8675 716.519 41.0901 716.178 40.3972C716.178 40.0178 715.818 39.2786 715.818 38.8994C715.624 38.135 715.37 37.387 715.059 36.6624C714.672 36.2456 714.416 35.7252 714.32 35.1648C713.904 34.4825 713.401 33.8578 712.822 33.3067C712.443 32.9275 712.083 32.1883 711.703 31.8091L710.206 30.3115C710.206 30.084 709.922 29.8564 709.599 29.7048C709.41 29.5151 709.163 29.2685 708.86 28.9652L708.784 28.8895C708.784 28.662 708.5 28.4345 708.177 28.283C707.988 28.0932 707.742 27.8468 707.438 27.5436L707.362 27.4676C707.362 27.2402 707.078 27.0129 706.756 26.861L706.016 26.1217L705.94 26.046C705.94 25.8185 705.656 25.5908 705.334 25.4391L704.594 24.6997L704.519 24.6241C704.519 24.3965 704.234 24.169 703.912 24.0175C703.722 23.8277 703.476 23.5812 703.172 23.278L703.097 23.2021C703.097 22.9746 702.812 22.7471 702.49 22.5954C702.301 22.4057 702.054 22.1593 701.751 21.8562L701.675 21.7803C701.675 21.553 701.391 21.3253 701.068 21.1736C700.879 20.984 700.632 20.7375 700.329 20.4342L700.253 20.3586C700.253 20.1309 699.969 19.9035 699.646 19.7519C699.457 19.5622 699.21 19.3156 698.907 19.0123L698.831 18.9366C698.831 18.7091 698.547 18.4816 698.225 18.3299C698.035 18.1401 697.789 17.8937 697.485 17.5907L697.409 17.5147C697.409 17.2872 697.125 17.0598 696.803 16.9081L695.988 16.0931C695.988 15.7328 695.248 15.3535 694.869 15.3535C694.87 15.3034 694.861 15.2536 694.842 15.2071C694.824 15.1606 694.796 15.1184 694.76 15.083C694.725 15.0475 694.683 15.0196 694.636 15.001C694.59 14.9823 694.54 14.9732 694.49 14.9743C693.75 14.614 693.371 14.2348 692.632 13.8558C692.253 13.4767 691.513 13.1164 690.774 12.3582C690.395 12.3582 689.655 11.998 689.276 11.998C688.537 11.6188 687.418 11.6188 687.039 11.2396C686.392 11.2957 685.743 11.171 685.162 10.8794H678.831C678.387 11.1665 677.858 11.2936 677.333 11.2396C676.214 11.6188 675.475 11.6188 675.096 11.998C674.356 11.998 673.977 12.3582 673.598 13.1164C672.795 13.1347 672.017 13.3921 671.361 13.8558C671.001 14.2348 670.242 14.614 669.882 14.9743C669.375 15.5174 668.724 15.9053 668.005 16.0931C667.728 16.6568 667.349 17.1646 666.887 17.5907C666.508 17.9697 666.508 18.3299 666.148 18.3299L528.095 189.976C524.824 193.916 523.192 198.963 523.538 204.073C523.884 209.183 526.181 213.964 529.953 217.427C531.375 218.849 532.797 220.271 534.219 221.693C535.641 223.115 537.063 224.537 538.484 225.959C539.906 227.38 541.328 228.802 542.75 230.224C543.631 231.217 544.609 232.119 545.669 232.916C549.176 235.962 553.71 237.562 558.352 237.39H661.673V251.533C661.642 254.413 662.22 257.266 663.37 259.906C664.521 262.546 666.217 264.913 668.347 266.851C668.366 266.87 668.385 266.87 668.385 266.889C668.822 267.373 669.284 267.835 669.768 268.273L669.825 268.33C670.261 268.804 670.716 269.259 671.19 269.695C671.209 269.714 671.228 269.714 671.228 269.733C671.666 270.217 672.128 270.679 672.612 271.117L672.669 271.173C673.105 271.647 673.56 272.102 674.034 272.538C674.053 272.557 674.072 272.557 674.072 272.576C674.509 273.061 674.971 273.523 675.456 273.96L675.513 274.017C675.949 274.491 676.404 274.946 676.878 275.382C676.897 275.401 676.916 275.401 676.916 275.42C677.353 275.905 677.815 276.367 678.3 276.804L678.356 276.861C678.793 277.335 679.248 277.79 679.721 278.226C679.74 278.245 679.76 278.245 679.76 278.264C680.197 278.748 680.659 279.21 681.143 279.648L681.2 279.704C684.015 282.732 687.676 284.844 691.706 285.765C695.737 286.686 699.951 286.374 703.802 284.87C707.653 283.365 710.963 280.738 713.301 277.329C715.64 273.919 716.9 269.886 716.917 265.751V237.39H720.652C724.83 237.492 728.938 236.309 732.422 234.001C735.906 231.694 738.598 228.372 740.134 224.486C741.67 220.599 741.976 216.335 741.011 212.269C740.046 208.203 737.856 204.531 734.738 201.749ZM661.673 121.841V182.146H613.084L661.673 121.841Z" fill="#F4694D"/>
<path opacity="0.1" d="M734.738 201.749C734.738 201.73 734.738 201.73 734.719 201.73C734.264 201.237 733.79 200.763 733.316 200.327C733.316 200.308 733.316 200.308 733.297 200.308C732.842 199.815 732.368 199.341 731.894 198.905C731.894 198.886 731.894 198.886 731.875 198.886C731.42 198.393 730.946 197.919 730.472 197.484C730.472 197.464 730.472 197.464 730.453 197.464C729.998 196.972 729.524 196.498 729.05 196.062C729.05 196.043 729.05 196.043 729.031 196.043C728.576 195.55 728.102 195.076 727.628 194.64C727.628 194.621 727.628 194.621 727.609 194.621C727.155 194.128 726.68 193.654 726.207 193.218C726.207 193.199 726.207 193.199 726.188 193.199C725.733 192.706 725.259 192.232 724.785 191.796C724.785 191.777 724.785 191.777 724.766 191.777C724.311 191.284 723.837 190.81 723.363 190.374C723.363 190.355 723.363 190.355 723.344 190.355C722.889 189.862 722.415 189.388 721.941 188.952C721.941 188.933 721.941 188.933 721.922 188.933C720.474 187.346 718.785 185.996 716.917 184.933V44.4921C716.917 43.7526 716.557 43.3735 716.557 42.6342C716.651 41.8675 716.519 41.0901 716.178 40.3972C716.178 40.0178 715.818 39.2786 715.818 38.8994C715.624 38.135 715.37 37.387 715.059 36.6624C714.672 36.2456 714.416 35.7252 714.32 35.1648C713.904 34.4825 713.401 33.8578 712.822 33.3067C712.443 32.9275 712.083 32.1883 711.703 31.8091L710.206 30.3115C710.206 30.084 709.922 29.8564 709.599 29.7048C709.41 29.5151 709.163 29.2685 708.86 28.9652L708.784 28.8895C708.784 28.662 708.5 28.4345 708.177 28.283C707.988 28.0932 707.742 27.8468 707.438 27.5436L707.362 27.4676C707.362 27.2402 707.078 27.0129 706.756 26.861L706.016 26.1217L705.94 26.046C705.94 25.8185 705.656 25.5908 705.334 25.4391L704.594 24.6997L704.519 24.6241C704.519 24.3965 704.234 24.169 703.912 24.0175C703.722 23.8277 703.476 23.5812 703.172 23.278L703.097 23.2021C703.097 22.9746 702.812 22.7471 702.49 22.5954C702.301 22.4057 702.054 22.1593 701.751 21.8562L701.675 21.7803C701.675 21.553 701.391 21.3253 701.068 21.1736C700.879 20.984 700.632 20.7375 700.329 20.4342L700.253 20.3586C700.253 20.1309 699.969 19.9035 699.646 19.7519C699.457 19.5622 699.21 19.3156 698.907 19.0123L698.831 18.9366C698.831 18.7091 698.547 18.4816 698.225 18.3299C698.035 18.1401 697.789 17.8937 697.485 17.5907L697.409 17.5147C697.409 17.2872 697.125 17.0598 696.803 16.9081L695.988 16.0931C695.988 15.7328 695.248 15.3535 694.869 15.3535C694.87 15.3034 694.861 15.2536 694.842 15.2071C694.824 15.1606 694.796 15.1184 694.76 15.083C694.725 15.0475 694.683 15.0196 694.636 15.001C694.59 14.9823 694.54 14.9732 694.49 14.9743C693.75 14.614 693.371 14.2348 692.632 13.8558C692.253 13.4767 691.513 13.1164 690.774 12.3582C690.395 12.3582 689.655 11.998 689.276 11.998C688.537 11.6188 687.418 11.6188 687.039 11.2396C686.392 11.2957 685.743 11.171 685.162 10.8794H678.831C678.387 11.1665 677.858 11.2936 677.333 11.2396C676.214 11.6188 675.475 11.6188 675.096 11.998C674.356 11.998 673.977 12.3582 673.598 13.1164C672.795 13.1347 672.017 13.3921 671.361 13.8558C671.001 14.2348 670.242 14.614 669.882 14.9743C669.375 15.5174 668.724 15.9053 668.005 16.0931C667.728 16.6568 667.349 17.1646 666.887 17.5907C666.508 17.9697 666.508 18.3299 666.148 18.3299L528.095 189.976C524.824 193.916 523.192 198.963 523.538 204.073C523.884 209.183 526.181 213.964 529.953 217.427C531.375 218.849 532.797 220.271 534.219 221.693C535.641 223.115 537.063 224.537 538.484 225.959C539.906 227.38 541.328 228.802 542.75 230.224C543.631 231.217 544.609 232.119 545.669 232.916C549.176 235.962 553.71 237.562 558.352 237.39H661.673V251.533C661.642 254.413 662.22 257.266 663.37 259.906C664.521 262.546 666.217 264.913 668.347 266.851C668.366 266.87 668.385 266.87 668.385 266.889C668.822 267.373 669.284 267.835 669.768 268.273L669.825 268.33C670.261 268.804 670.716 269.259 671.19 269.695C671.209 269.714 671.228 269.714 671.228 269.733C671.666 270.217 672.128 270.679 672.612 271.117L672.669 271.173C673.105 271.647 673.56 272.102 674.034 272.538C674.053 272.557 674.072 272.557 674.072 272.576C674.509 273.061 674.971 273.523 675.456 273.96L675.513 274.017C675.949 274.491 676.404 274.946 676.878 275.382C676.897 275.401 676.916 275.401 676.916 275.42C677.353 275.905 677.815 276.367 678.3 276.804L678.356 276.861C678.793 277.335 679.248 277.79 679.721 278.226C679.74 278.245 679.76 278.245 679.76 278.264C680.197 278.748 680.659 279.21 681.143 279.648L681.2 279.704C684.015 282.732 687.676 284.844 691.706 285.765C695.737 286.686 699.951 286.374 703.802 284.87C707.653 283.365 710.963 280.738 713.301 277.329C715.64 273.919 716.9 269.886 716.917 265.751V237.39H720.652C724.83 237.492 728.938 236.309 732.422 234.001C735.906 231.694 738.598 228.372 740.134 224.486C741.67 220.599 741.976 216.335 741.011 212.269C740.046 208.203 737.856 204.531 734.738 201.749ZM661.673 121.841V182.146H613.084L661.673 121.841Z" fill="#1A212F"/>
<path d="M727.337 202.658C727.334 205.384 726.788 208.082 725.732 210.595C724.677 213.108 723.131 215.386 721.186 217.295C719.242 219.205 716.936 220.709 714.404 221.719C711.873 222.729 709.165 223.225 706.44 223.179H702.705V251.538C702.705 254.232 702.175 256.901 701.143 259.39C700.112 261.879 698.601 264.141 696.696 266.047C694.79 267.952 692.528 269.463 690.039 270.494C687.55 271.526 684.882 272.056 682.187 272.056C679.493 272.056 676.824 271.526 674.335 270.494C671.846 269.463 669.584 267.952 667.678 266.047C665.773 264.141 664.262 261.879 663.231 259.39C662.199 256.901 661.669 254.232 661.669 251.538V223.179H544.133C539.488 223.352 534.952 221.751 531.444 218.701C529.282 217.076 527.474 215.028 526.127 212.682C524.781 210.336 523.925 207.741 523.611 205.055C523.298 202.368 523.533 199.646 524.303 197.053C525.074 194.46 526.362 192.051 528.092 189.971L666.141 18.3362C666.515 18.3362 666.515 17.9626 666.888 17.5912C667.349 17.1659 667.729 16.6597 668.008 16.0977C668.722 15.9052 669.369 15.518 669.876 14.9793C670.249 14.606 670.996 14.2324 671.37 13.8589C672.022 13.3917 672.799 13.1315 673.601 13.112C673.975 12.3672 674.349 11.9939 675.096 11.9939C675.469 11.6205 676.216 11.6205 677.336 11.2466C677.863 11.3021 678.392 11.1699 678.83 10.8735H685.17C685.744 11.1748 686.392 11.3044 687.037 11.2466C687.411 11.6205 688.531 11.6205 689.278 11.9939C689.652 11.9939 690.399 12.3672 690.772 12.3672C691.519 13.112 692.257 13.4856 692.631 13.8589C693.378 14.2324 693.751 14.606 694.498 14.9793C694.547 14.9783 694.596 14.9872 694.642 15.0056C694.688 15.024 694.73 15.0515 694.765 15.0864C694.799 15.1213 694.827 15.1629 694.845 15.2087C694.864 15.2545 694.873 15.3036 694.872 15.353C695.245 15.353 695.992 15.7241 695.992 16.0977C696.739 16.8445 697.112 17.2181 697.486 17.5912C697.859 17.9626 698.233 18.7099 698.606 19.083C699.175 19.6445 699.676 20.2705 700.1 20.9481C700.193 21.5099 700.453 22.0306 700.847 22.4422C701.153 23.1682 701.403 23.9166 701.594 24.6808C701.594 25.0521 701.958 25.7987 701.958 26.1723C702.294 26.8674 702.424 27.6444 702.332 28.411C702.332 29.1576 702.705 29.5314 702.705 30.2762V182.137H706.44C711.926 182.107 717.202 184.248 721.117 188.092C725.031 191.936 727.267 197.172 727.337 202.658ZM661.669 89.9752L587.411 182.137H661.669V89.9752Z" fill="#F4694D"/>
<path opacity="0.2" d="M411.845 589.197C422.336 589.197 430.841 580.693 430.841 570.202C430.841 559.711 422.336 551.206 411.845 551.206C401.354 551.206 392.85 559.711 392.85 570.202C392.85 580.693 401.354 589.197 411.845 589.197Z" fill="#F4694D"/>
<path opacity="0.2" d="M411.845 589.11C419.902 589.11 426.433 582.579 426.433 574.522C426.433 566.466 419.902 559.935 411.845 559.935C403.789 559.935 397.258 566.466 397.258 574.522C397.258 582.579 403.789 589.11 411.845 589.11Z" fill="#F4694D"/>
<path d="M413.151 589.067C413.151 589.067 401.562 587.373 400.867 587.821C400.171 588.268 399.542 591.646 400.941 592.468C402.34 593.291 412.962 591.794 412.962 591.794C413.307 591.433 413.516 590.963 413.55 590.465C413.585 589.967 413.443 589.472 413.151 589.067Z" fill="#F4694D"/>
<path opacity="0.49" d="M413.151 589.067C413.151 589.067 401.562 587.373 400.867 587.821C400.171 588.268 399.542 591.646 400.941 592.468C402.34 593.291 412.962 591.794 412.962 591.794C413.307 591.433 413.516 590.963 413.55 590.465C413.585 589.967 413.443 589.472 413.151 589.067Z" fill="#1A212F"/>
<path opacity="0.2" d="M400.924 587.95C401.275 587.871 401.84 589.031 401.71 590.323C401.587 591.552 401.125 592.372 400.934 592.347C400.742 592.321 400.094 591.604 400.201 590.019C400.28 588.867 400.631 588.016 400.924 587.95Z" fill="#F9FBFC"/>
<g opacity="0.2">
<path d="M402.139 588.273C402.804 588.226 403.473 588.218 404.139 588.25C404.473 588.263 404.807 588.294 405.142 588.336C405.312 588.358 405.481 588.389 405.647 588.431C405.826 588.476 405.954 588.512 406.121 588.539C406.759 588.65 407.423 588.695 408.081 588.753C408.742 588.803 409.404 588.859 410.068 588.922C409.404 588.984 408.737 589.011 408.07 589.003C407.398 589.005 406.728 588.955 406.064 588.854C405.902 588.827 405.711 588.772 405.568 588.734C405.417 588.692 405.256 588.665 405.096 588.636C404.774 588.578 404.446 588.541 404.119 588.498L402.139 588.273Z" fill="#1A212F"/>
<path d="M403.457 588.891C403.929 588.958 404.397 589.037 404.86 589.127C405.323 589.209 405.786 589.31 406.242 589.369C406.703 589.411 407.166 589.418 407.627 589.388C408.097 589.368 408.571 589.356 409.048 589.352C408.589 589.479 408.121 589.575 407.649 589.638C407.17 589.715 406.683 589.732 406.201 589.687C405.727 589.615 405.26 589.508 404.801 589.369C404.344 589.237 403.895 589.077 403.457 588.891Z" fill="#1A212F"/>
<path d="M409.146 589.979C409.755 589.531 410.479 589.265 411.232 589.211C411.622 589.186 412.012 589.251 412.373 589.399C412.563 589.478 412.734 589.595 412.876 589.743C412.957 589.824 413.02 589.922 413.061 590.03C413.075 590.069 413.082 590.11 413.081 590.151C413.078 590.181 413.072 590.21 413.063 590.238C413.055 590.255 413.047 590.271 413.038 590.287C413.009 590.338 412.973 590.386 412.933 590.428C412.65 590.718 412.284 590.914 411.885 590.987C411.679 591.023 411.468 591.007 411.27 590.942C411.087 590.881 410.911 590.801 410.745 590.703C410.553 590.609 410.399 590.451 410.31 590.256C410.3 590.221 410.297 590.183 410.302 590.147C410.307 590.11 410.32 590.075 410.341 590.044C410.378 589.992 410.429 589.952 410.489 589.929C410.582 589.892 410.679 589.868 410.779 589.856C410.967 589.836 411.158 589.838 411.346 589.862C411.534 589.877 411.715 589.945 411.866 590.058C411.528 589.925 411.155 589.908 410.807 590.011C410.724 590.029 410.644 590.056 410.567 590.092C410.498 590.133 410.486 590.155 410.505 590.199C410.593 590.329 410.718 590.429 410.864 590.486C411.023 590.56 411.187 590.623 411.355 590.674C411.511 590.718 411.675 590.723 411.833 590.688C412.161 590.618 412.462 590.452 412.696 590.211C412.72 590.188 412.741 590.162 412.758 590.133L412.766 590.122L412.763 590.142C412.763 590.146 412.764 590.141 412.759 590.128C412.733 590.064 412.695 590.005 412.646 589.955C412.533 589.837 412.397 589.742 412.247 589.675C411.928 589.535 411.584 589.46 411.235 589.457C410.876 589.451 410.519 589.498 410.174 589.598C409.82 589.691 409.476 589.819 409.146 589.979Z" fill="#1A212F"/>
<path d="M413.002 591.101C412.556 591.344 412.068 591.501 411.563 591.564C411.306 591.596 411.047 591.601 410.789 591.577C410.531 591.545 410.276 591.483 410.032 591.394C409.565 591.207 409.112 590.987 408.677 590.734C408.244 590.502 407.777 590.338 407.293 590.25C407.803 590.216 408.313 590.304 408.782 590.507C409.253 590.7 409.683 590.934 410.141 591.092C410.588 591.262 411.065 591.338 411.543 591.315C412.036 591.296 412.525 591.224 413.002 591.101Z" fill="#1A212F"/>
<path d="M401.711 592.091C402.309 592.092 402.904 592.098 403.497 592.109C404.08 592.13 404.664 592.108 405.245 592.044C405.84 591.937 406.447 591.905 407.05 591.95C407.648 591.977 408.244 592.042 408.833 592.145L407.048 592.2C406.462 592.202 405.877 592.255 405.3 592.36C404.696 592.427 404.087 592.426 403.484 592.358C402.888 592.305 402.296 592.216 401.711 592.091Z" fill="#1A212F"/>
<path d="M409.749 591.71C409.255 591.589 408.764 591.458 408.268 591.357C408.021 591.303 407.773 591.251 407.527 591.217C407.287 591.176 407.042 591.181 406.804 591.234C406.313 591.329 405.814 591.438 405.309 591.526C405.056 591.569 404.801 591.602 404.541 591.624C404.272 591.652 404.001 591.642 403.735 591.593C403.481 591.534 403.231 591.459 402.986 591.37C402.718 591.284 402.474 591.137 402.274 590.939C402.215 590.872 402.175 590.792 402.157 590.705C402.138 590.612 402.15 590.516 402.191 590.43C402.274 590.287 402.409 590.18 402.567 590.131C402.822 590.047 403.088 590.002 403.356 589.999C403.617 589.988 403.878 590.002 404.137 590.039C404.406 590.063 404.665 590.15 404.894 590.292C404.931 590.314 404.963 590.344 404.986 590.38C405.01 590.416 405.024 590.457 405.029 590.499C405.023 590.543 405.004 590.585 404.974 590.619C404.945 590.652 404.906 590.676 404.862 590.687C404.737 590.73 404.607 590.758 404.476 590.768C404.221 590.794 403.965 590.8 403.71 590.787C403.963 590.763 404.216 590.732 404.463 590.684C404.679 590.639 405.065 590.533 404.801 590.419C404.588 590.309 404.353 590.248 404.113 590.24C403.867 590.219 403.619 590.221 403.372 590.245C403.133 590.264 402.896 590.314 402.669 590.393C402.584 590.42 402.51 590.475 402.459 590.548C402.445 590.581 402.442 590.618 402.451 590.653C402.459 590.688 402.478 590.719 402.506 590.743C402.676 590.895 402.877 591.008 403.095 591.076C403.328 591.158 403.566 591.226 403.807 591.28C404.292 591.34 404.783 591.321 405.262 591.226C405.761 591.158 406.256 591.053 406.768 590.991C406.9 590.972 407.032 590.964 407.165 590.965C407.298 590.972 407.43 590.989 407.56 591.017C407.814 591.069 408.061 591.134 408.307 591.205C408.794 591.358 409.276 591.52 409.749 591.71Z" fill="#1A212F"/>
<path d="M406.478 590.277C405.795 590.163 405.143 589.981 404.49 589.806L403.516 589.541C403.192 589.447 402.86 589.389 402.523 589.367C402.859 589.262 403.214 589.238 403.561 589.294C403.903 589.337 404.242 589.405 404.575 589.496C405.24 589.674 405.88 589.937 406.478 590.277Z" fill="#1A212F"/>
</g>
<path d="M411.549 588.994C411.549 588.994 423.155 587.427 423.846 587.882C424.536 588.337 425.128 591.721 423.721 592.528C422.313 593.335 411.708 591.723 411.708 591.723C411.367 591.359 411.164 590.886 411.134 590.387C411.105 589.889 411.252 589.396 411.549 588.994Z" fill="#F4694D"/>
<path opacity="0.49" d="M411.549 588.994C411.549 588.994 423.155 587.427 423.846 587.882C424.536 588.337 425.128 591.721 423.721 592.528C422.313 593.335 411.708 591.723 411.708 591.723C411.367 591.359 411.164 590.886 411.134 590.387C411.105 589.889 411.252 589.396 411.549 588.994Z" fill="#1A212F"/>
<path opacity="0.2" d="M423.786 588.011C423.436 587.928 422.858 589.081 422.974 590.375C423.084 591.605 423.537 592.43 423.728 592.407C423.92 592.384 424.577 591.674 424.486 590.088C424.42 588.934 424.078 588.08 423.786 588.011Z" fill="#F9FBFC"/>
<g opacity="0.2">
<path d="M411.967 591.384L413.957 591.493C414.287 591.506 414.616 591.524 414.943 591.521C415.105 591.519 415.269 591.519 415.425 591.503C415.572 591.489 415.77 591.467 415.934 591.467C416.605 591.479 417.275 591.542 417.937 591.656C418.596 591.759 419.249 591.897 419.893 592.069C419.228 592.02 418.565 591.965 417.906 591.904C417.247 591.852 416.585 591.784 415.937 591.788C415.769 591.787 415.636 591.8 415.452 591.815C415.281 591.828 415.11 591.831 414.939 591.824C414.601 591.81 414.267 591.784 413.935 591.741C413.273 591.661 412.615 591.542 411.967 591.384Z" fill="#1A212F"/>
<path d="M413.174 591.349C413.625 591.197 414.085 591.073 414.552 590.977C415.019 590.874 415.494 590.805 415.971 590.769C416.456 590.762 416.94 590.817 417.411 590.932C417.877 591.031 418.336 591.163 418.784 591.326C418.308 591.285 417.837 591.236 417.37 591.179C416.912 591.113 416.45 591.084 415.988 591.09C415.529 591.113 415.059 591.177 414.591 591.224C414.122 591.277 413.65 591.319 413.174 591.349Z" fill="#1A212F"/>
<path d="M418.932 590.708C419.248 590.894 419.581 591.048 419.927 591.168C420.263 591.294 420.615 591.37 420.973 591.392C421.321 591.416 421.67 591.369 422 591.254C422.154 591.198 422.296 591.114 422.419 591.005C422.471 590.959 422.514 590.904 422.545 590.842C422.551 590.829 422.55 590.824 422.55 590.828L422.551 590.848L422.545 590.836C422.529 590.807 422.511 590.779 422.489 590.754C422.274 590.495 421.987 590.306 421.665 590.211C421.51 590.164 421.346 590.156 421.188 590.188C421.016 590.225 420.848 590.275 420.683 590.337C420.533 590.382 420.401 590.472 420.303 590.595C420.281 590.637 420.291 590.66 420.357 590.706C420.431 590.748 420.508 590.782 420.589 590.806C420.929 590.936 421.302 590.948 421.649 590.842C421.489 590.943 421.304 590.996 421.115 590.996C420.926 591.006 420.736 590.993 420.549 590.958C420.451 590.939 420.356 590.906 420.267 590.863C420.209 590.835 420.16 590.791 420.127 590.736C420.109 590.704 420.099 590.668 420.097 590.631C420.094 590.594 420.1 590.557 420.114 590.523C420.217 590.335 420.383 590.19 420.582 590.111C420.755 590.027 420.937 589.961 421.124 589.914C421.327 589.864 421.538 589.865 421.74 589.917C422.132 590.021 422.482 590.245 422.741 590.556C422.779 590.602 422.81 590.652 422.835 590.705C422.843 590.721 422.85 590.738 422.856 590.756C422.863 590.784 422.867 590.814 422.868 590.844C422.865 590.885 422.855 590.925 422.838 590.963C422.789 591.067 422.719 591.16 422.632 591.235C422.478 591.371 422.298 591.474 422.103 591.538C421.732 591.658 421.338 591.692 420.951 591.637C420.204 591.524 419.504 591.202 418.932 590.708Z" fill="#1A212F"/>
<path d="M422.862 589.891C422.396 589.731 421.914 589.621 421.424 589.563C420.95 589.503 420.468 589.541 420.008 589.676C419.54 589.798 419.092 589.998 418.608 590.154C418.125 590.319 417.609 590.367 417.104 590.293C417.593 590.243 418.071 590.117 418.521 589.919C418.975 589.701 419.443 589.516 419.923 589.367C420.174 589.297 420.432 589.255 420.693 589.243C420.951 589.24 421.21 589.264 421.463 589.317C421.961 589.419 422.436 589.614 422.862 589.891Z" fill="#1A212F"/>
<path d="M415.92 588.78C416.504 588.653 417.096 588.561 417.692 588.506C418.295 588.435 418.904 588.432 419.508 588.497C420.085 588.6 420.671 588.651 421.257 588.65L423.042 588.699C422.453 588.804 421.858 588.871 421.26 588.901C420.657 588.948 420.05 588.918 419.454 588.813C418.873 588.752 418.289 588.732 417.706 588.755C417.113 588.768 416.518 588.776 415.92 588.78Z" fill="#1A212F"/>
<path d="M419.668 589.029C419.182 589.182 418.688 589.306 418.19 589.42C417.94 589.472 417.689 589.518 417.432 589.549C417.3 589.567 417.167 589.574 417.034 589.571C416.901 589.562 416.77 589.543 416.64 589.514C416.134 589.412 415.649 589.269 415.157 589.161C414.687 589.029 414.199 588.973 413.711 588.994C413.466 589.029 413.224 589.079 412.985 589.142C412.762 589.193 412.553 589.291 412.371 589.428C412.342 589.45 412.32 589.479 412.309 589.514C412.298 589.548 412.298 589.585 412.309 589.619C412.324 589.672 412.41 589.738 412.507 589.79C412.727 589.887 412.959 589.955 413.196 589.992C413.44 590.036 413.687 590.057 413.935 590.055C414.174 590.066 414.413 590.023 414.634 589.931C414.906 589.837 414.53 589.702 414.318 589.64C414.075 589.573 413.826 589.522 413.575 589.479C413.831 589.485 414.086 589.512 414.337 589.557C414.468 589.578 414.595 589.615 414.716 589.668C414.758 589.683 414.796 589.709 414.823 589.745C414.85 589.781 414.866 589.824 414.868 589.869C414.86 589.911 414.842 589.95 414.816 589.984C414.79 590.018 414.756 590.045 414.717 590.064C414.478 590.188 414.212 590.255 413.942 590.258C413.682 590.274 413.42 590.267 413.161 590.237C412.894 590.212 412.632 590.147 412.385 590.043C412.23 589.982 412.105 589.865 412.033 589.716C411.999 589.627 411.995 589.53 412.02 589.439C412.045 589.354 412.092 589.277 412.155 589.215C412.37 589.034 412.625 588.906 412.899 588.841C413.15 588.771 413.405 588.716 413.663 588.677C413.932 588.649 414.203 588.66 414.469 588.709C414.726 588.751 414.979 588.804 415.227 588.867C415.723 588.994 416.213 589.141 416.695 589.274C416.928 589.345 417.172 589.37 417.414 589.348C417.662 589.333 417.913 589.3 418.163 589.266C418.666 589.205 419.166 589.112 419.668 589.029Z" fill="#1A212F"/>
<path d="M416.295 590.203C415.672 590.495 415.014 590.707 414.337 590.833C413.998 590.898 413.655 590.939 413.31 590.955C412.96 590.984 412.607 590.932 412.281 590.802C412.618 590.806 412.954 590.774 413.284 590.706L414.277 590.518C414.941 590.393 415.605 590.264 416.295 590.203Z" fill="#1A212F"/>
<path d="M419.389 591.462C419.916 591.633 420.414 591.801 420.927 591.919C421.181 591.981 421.439 592.029 421.699 592.063C421.961 592.101 422.224 592.107 422.504 592.126C422.247 592.24 421.971 592.304 421.69 592.313C421.408 592.325 421.127 592.297 420.853 592.231C420.581 592.166 420.318 592.068 420.068 591.942C419.818 591.819 419.589 591.657 419.389 591.462Z" fill="#1A212F"/>
</g>
<path d="M421.219 564.4C421.219 564.471 421.24 564.54 421.279 564.599C421.319 564.658 421.375 564.704 421.44 564.732C421.506 564.759 421.578 564.766 421.648 564.752C421.718 564.738 421.782 564.704 421.832 564.654C421.882 564.604 421.916 564.54 421.93 564.47C421.944 564.4 421.937 564.328 421.91 564.262C421.883 564.197 421.837 564.141 421.777 564.101C421.718 564.062 421.649 564.041 421.578 564.041C421.483 564.041 421.391 564.078 421.324 564.146C421.257 564.213 421.219 564.304 421.219 564.4Z" fill="#F4694D"/>
<path d="M417.365 548.952C417.365 549.023 417.386 549.092 417.426 549.152C417.465 549.211 417.521 549.257 417.587 549.284C417.653 549.311 417.725 549.318 417.794 549.304C417.864 549.29 417.928 549.256 417.978 549.206C418.028 549.156 418.063 549.092 418.076 549.022C418.09 548.952 418.083 548.88 418.056 548.815C418.029 548.749 417.983 548.693 417.924 548.653C417.865 548.614 417.795 548.593 417.724 548.593C417.629 548.593 417.538 548.631 417.47 548.698C417.403 548.766 417.365 548.857 417.365 548.952Z" fill="#F4694D"/>
<path d="M403.615 562.052C403.671 562.095 403.739 562.121 403.81 562.125C403.881 562.13 403.951 562.114 404.013 562.078C404.075 562.043 404.124 561.99 404.156 561.926C404.187 561.863 404.199 561.791 404.19 561.721C404.181 561.65 404.151 561.584 404.104 561.53C404.057 561.477 403.996 561.439 403.927 561.42C403.859 561.402 403.786 561.404 403.719 561.427C403.652 561.449 403.593 561.492 403.549 561.548C403.52 561.585 403.499 561.628 403.487 561.673C403.475 561.719 403.472 561.766 403.478 561.813C403.484 561.86 403.499 561.905 403.523 561.946C403.546 561.987 403.577 562.023 403.615 562.052Z" fill="#F4694D"/>
<path d="M400.391 584.02C400.391 584.091 400.412 584.16 400.451 584.219C400.491 584.278 400.547 584.324 400.612 584.352C400.678 584.379 400.75 584.386 400.82 584.372C400.89 584.358 400.954 584.324 401.004 584.274C401.054 584.224 401.088 584.16 401.102 584.09C401.116 584.02 401.109 583.948 401.082 583.882C401.054 583.817 401.008 583.761 400.949 583.721C400.89 583.682 400.821 583.661 400.75 583.661C400.655 583.661 400.563 583.698 400.496 583.766C400.428 583.833 400.391 583.925 400.391 584.02Z" fill="#F4694D"/>
<path d="M422.875 581.582C422.875 581.653 422.896 581.723 422.936 581.782C422.975 581.841 423.031 581.887 423.097 581.914C423.162 581.941 423.235 581.948 423.304 581.934C423.374 581.92 423.438 581.886 423.488 581.836C423.538 581.786 423.573 581.722 423.586 581.652C423.6 581.582 423.593 581.51 423.566 581.445C423.539 581.379 423.493 581.323 423.434 581.283C423.375 581.244 423.305 581.223 423.234 581.223C423.187 581.223 423.14 581.232 423.097 581.25C423.053 581.268 423.013 581.295 422.98 581.328C422.947 581.361 422.92 581.401 422.902 581.445C422.884 581.488 422.875 581.535 422.875 581.582Z" fill="#F4694D"/>
<path d="M420.73 566.751C420.73 566.847 420.759 566.941 420.812 567.021C420.866 567.101 420.942 567.163 421.031 567.2C421.12 567.237 421.217 567.247 421.312 567.228C421.406 567.209 421.493 567.163 421.561 567.095C421.629 567.027 421.675 566.94 421.694 566.846C421.713 566.751 421.703 566.653 421.666 566.565C421.63 566.476 421.567 566.4 421.487 566.346C421.407 566.293 421.313 566.264 421.217 566.264C421.088 566.264 420.964 566.315 420.873 566.407C420.782 566.498 420.731 566.622 420.73 566.751Z" fill="#F4694D"/>
<path d="M405.569 558.021C405.645 558.08 405.737 558.115 405.833 558.121C405.929 558.128 406.025 558.105 406.108 558.057C406.191 558.009 406.259 557.938 406.301 557.852C406.344 557.765 406.36 557.668 406.348 557.573C406.335 557.478 406.295 557.388 406.232 557.316C406.168 557.243 406.085 557.191 405.992 557.166C405.899 557.141 405.801 557.144 405.71 557.175C405.619 557.206 405.539 557.263 405.48 557.339C405.441 557.39 405.412 557.448 405.396 557.509C405.379 557.571 405.375 557.635 405.383 557.699C405.391 557.762 405.412 557.823 405.444 557.878C405.476 557.934 405.518 557.982 405.569 558.021Z" fill="#F4694D"/>
<path d="M401.313 576.033C401.312 576.129 401.341 576.223 401.394 576.303C401.448 576.383 401.524 576.445 401.613 576.482C401.702 576.519 401.799 576.529 401.894 576.51C401.988 576.491 402.075 576.445 402.143 576.377C402.211 576.309 402.257 576.222 402.276 576.128C402.295 576.034 402.285 575.936 402.248 575.847C402.212 575.758 402.149 575.682 402.069 575.628C401.989 575.575 401.895 575.546 401.799 575.546C401.735 575.546 401.672 575.559 401.613 575.583C401.554 575.608 401.5 575.644 401.455 575.689C401.41 575.734 401.374 575.788 401.35 575.847C401.325 575.906 401.313 575.969 401.313 576.033Z" fill="#F4694D"/>
<path d="M419.959 566.055C419.959 566.096 419.971 566.137 419.994 566.172C420.018 566.207 420.05 566.234 420.089 566.25C420.128 566.266 420.17 566.27 420.211 566.262C420.252 566.254 420.289 566.233 420.319 566.204C420.348 566.175 420.368 566.137 420.377 566.096C420.385 566.055 420.381 566.013 420.365 565.974C420.349 565.936 420.322 565.903 420.287 565.88C420.252 565.856 420.212 565.844 420.17 565.844C420.114 565.844 420.06 565.866 420.021 565.906C419.981 565.945 419.959 565.999 419.959 566.055Z" fill="#F4694D"/>
<path d="M421.965 573.09C422.081 573.09 422.176 572.995 422.176 572.879C422.176 572.763 422.081 572.668 421.965 572.668C421.848 572.668 421.754 572.763 421.754 572.879C421.754 572.995 421.848 573.09 421.965 573.09Z" fill="#F4694D"/>
<path d="M424.506 579.65C424.506 579.691 424.518 579.732 424.541 579.767C424.564 579.802 424.597 579.829 424.636 579.845C424.674 579.861 424.717 579.865 424.758 579.857C424.799 579.849 424.836 579.828 424.866 579.799C424.895 579.77 424.915 579.732 424.923 579.691C424.932 579.65 424.927 579.608 424.912 579.569C424.896 579.531 424.869 579.498 424.834 579.475C424.799 579.451 424.758 579.439 424.717 579.439C424.661 579.439 424.607 579.461 424.568 579.501C424.528 579.54 424.506 579.594 424.506 579.65Z" fill="#F4694D"/>
<path d="M400.605 574.522C400.605 574.564 400.618 574.605 400.641 574.64C400.664 574.674 400.697 574.701 400.736 574.717C400.774 574.733 400.817 574.737 400.858 574.729C400.898 574.721 400.936 574.701 400.965 574.671C400.995 574.642 401.015 574.604 401.023 574.563C401.031 574.522 401.027 574.48 401.011 574.442C400.995 574.403 400.968 574.37 400.933 574.347C400.899 574.324 400.858 574.311 400.816 574.312C400.788 574.312 400.761 574.317 400.736 574.328C400.71 574.338 400.687 574.354 400.667 574.373C400.648 574.393 400.632 574.416 400.621 574.442C400.611 574.467 400.605 574.495 400.605 574.522Z" fill="#F4694D"/>
<path d="M422.813 559.379C422.812 559.421 422.825 559.461 422.848 559.496C422.871 559.531 422.904 559.558 422.943 559.574C422.981 559.59 423.023 559.594 423.064 559.586C423.105 559.578 423.143 559.558 423.172 559.528C423.202 559.499 423.222 559.461 423.23 559.42C423.238 559.379 423.234 559.337 423.218 559.298C423.202 559.26 423.175 559.227 423.141 559.204C423.106 559.181 423.065 559.168 423.023 559.168C422.967 559.168 422.914 559.19 422.874 559.23C422.835 559.269 422.813 559.323 422.813 559.379Z" fill="#F4694D"/>
<path d="M413.314 557.636C413.431 557.636 413.525 557.541 413.525 557.425C413.525 557.309 413.431 557.214 413.314 557.214C413.198 557.214 413.104 557.309 413.104 557.425C413.104 557.541 413.198 557.636 413.314 557.636Z" fill="#F4694D"/>
<path d="M411.728 554.459C411.845 554.459 411.939 554.364 411.939 554.248C411.939 554.132 411.845 554.037 411.728 554.037C411.612 554.037 411.518 554.132 411.518 554.248C411.518 554.364 411.612 554.459 411.728 554.459Z" fill="#F4694D"/>
<path d="M404.46 589.574C406.685 590.41 409.005 590.964 411.368 591.222L412.782 591.245C412.782 591.245 416.316 590.399 416.826 590.228C417.333 590.059 418.552 590.601 419.112 590.228C420.43 589.239 421.586 588.051 422.539 586.707C422.351 585.414 422.036 584.142 421.6 582.911C421.569 582.403 422.313 579.321 422.382 578.304C422.45 577.287 419.434 572.246 419.163 571.429C419.23 570.121 419.526 568.836 420.037 567.631C420.037 567.631 417.545 570.241 417.627 570.85C417.706 571.46 418.841 572.882 418.9 573.324C418.959 573.764 417.358 576.914 417.413 577.354C417.733 578.175 417.969 579.027 418.118 579.895C417.946 579.141 417.549 578.456 416.981 577.931C416.333 577.581 415.705 577.197 415.098 576.78C414.53 575.793 414.136 574.716 413.935 573.595C414.359 572.95 414.598 572.201 414.623 571.429C414.016 569.787 413.226 568.217 412.27 566.75C412.27 566.75 412.663 568.75 412.27 569.224C411.879 569.697 410.456 570.443 410.32 570.816C410.185 571.188 411.608 572.815 411.439 573.222C411.269 573.627 408.064 574.271 407.736 574.712C407.123 576.112 406.793 577.621 406.764 579.149C407.001 579.793 407.779 582.232 407.339 582.707C406.899 583.182 405.949 583.386 405.917 583.182C406.181 582.316 406.295 581.411 406.255 580.507C406.018 579.557 405.002 577.491 404.935 576.981C405.078 575.725 405.382 574.492 405.837 573.312C404.975 574.608 404.274 576.003 403.749 577.468C403.856 578.904 404.04 580.332 404.301 581.747C404.211 581.815 403.844 581.431 403.734 581.228C403.679 580.608 403.679 579.985 403.734 579.365C403.156 580.012 402.674 580.738 402.302 581.521C402.155 582.177 402.901 583.781 402.789 584.323C402.491 585.148 402.238 585.989 402.031 586.841C401.964 587.563 403.92 589.231 404.46 589.574ZM419.795 584.728C419.631 585.487 419.349 586.215 418.959 586.886C418.959 586.886 419.118 585.825 419.128 585.407C419.033 584.849 418.874 584.303 418.656 583.781C418.59 583.101 418.779 582.421 419.185 581.872C419.514 582.793 419.719 583.753 419.795 584.728ZM416.804 589.686C416.804 589.686 417.672 588.942 418.101 588.547C418.531 588.151 419.807 587.587 420.037 587.202C420.296 586.478 420.495 585.734 420.632 584.977C420.79 585.788 420.847 586.615 420.801 587.44C420.279 588.317 419.56 589.059 418.701 589.608C418.079 589.753 417.435 589.779 416.804 589.686ZM407.347 584.058C407.003 584.662 406.752 585.314 406.605 585.994C406.633 586.659 406.844 587.305 407.215 587.858C407.455 588.337 407.644 588.841 407.779 589.36C407.779 589.36 406.277 588.659 406.018 587.552C405.766 586.479 407.261 584.188 407.347 584.058Z" fill="#F4694D"/>
<path d="M417.506 568.272C417.506 568.272 419.061 567.165 419.108 566.329C419.155 565.494 418.135 563.754 418.239 563.077C418.321 562.62 418.471 562.179 418.685 561.767C418.685 561.767 417.039 562.896 417.047 563.822C417.055 564.748 418.026 566.216 417.936 566.668C417.845 567.12 417.506 568.272 417.506 568.272Z" fill="#F4694D"/>
<path d="M408.219 573.357C408.392 572.862 408.496 572.345 408.53 571.821C408.421 571.444 408.226 571.098 407.959 570.811C407.832 570.968 407.746 571.155 407.709 571.354C407.673 571.553 407.687 571.759 407.75 571.951C407.954 572.657 408.219 573.357 408.219 573.357Z" fill="#F4694D"/>
<path d="M404.374 573.171C404.828 572.452 405.131 571.649 405.264 570.81C405.287 569.849 405.066 568.898 404.62 568.046C404.333 567.716 403.988 567.441 403.604 567.233C403.864 567.625 404.059 568.057 404.179 568.512C404.196 568.91 403.9 570.147 403.858 570.63C403.961 571.489 404.134 572.339 404.374 573.171Z" fill="#F4694D"/>
<path d="M414.471 566.751C414.471 566.751 415.639 565.158 415.419 564.125C415.13 563.121 414.627 562.19 413.946 561.398C413.377 560.868 412.855 560.29 412.387 559.669C412.023 558.668 412.023 557.571 412.387 556.57C412.664 556.228 413.011 555.949 413.403 555.751C412.893 555.753 412.391 555.876 411.937 556.109C411.484 556.343 411.092 556.681 410.795 557.095C409.778 558.518 408.474 564.04 409.084 565.294C409.687 566.268 410.475 567.114 411.405 567.784C411.196 566.89 411.094 565.975 411.1 565.057C411.252 564.515 412.878 565.055 413.285 565.386C413.715 565.81 414.111 566.266 414.471 566.751Z" fill="#F4694D"/>
<path d="M417.158 574.56C417.158 574.56 417.876 573.814 417.723 573.171C417.571 572.527 416.656 571.561 416.605 571.256C416.629 570.736 416.7 570.22 416.817 569.712C416.817 569.712 415.894 571.46 416.097 572.002C416.251 572.446 416.381 572.899 416.487 573.357C416.487 573.357 416.08 573.086 415.996 572.866C415.928 572.671 415.872 572.473 415.826 572.273C415.826 572.273 415.132 573.137 415.352 573.746C415.738 574.404 416.218 575.003 416.775 575.525C416.757 575.339 416.751 575.153 416.758 574.966C416.775 574.763 416.904 574.88 417.158 574.56Z" fill="#F4694D"/>
<g opacity="0.4">
<path d="M412.186 591.223C412.186 591.223 416.422 589.699 417.365 587.532C417.958 586.172 416.361 583.392 416.225 582.951C416.089 582.511 416.267 580.817 416.043 580.139C415.818 579.462 412.82 577.685 412.558 577.218C412.295 576.751 413.081 574.888 413.081 574.888C413.081 574.888 410.803 576.731 410.465 577.775C410.127 578.818 411.479 580.85 411.463 581.223C411.274 581.752 411.006 582.25 410.669 582.699C410.334 582.271 410.119 581.762 410.046 581.223C410.025 580.512 410.375 580.143 410.302 579.65C410.068 579.11 409.731 578.62 409.311 578.208C409.565 578.643 409.65 579.156 409.551 579.65C409.314 580.241 408.16 581.393 408.33 582.308C408.5 583.222 409.855 585.323 409.737 585.899C409.661 586.253 409.517 586.589 409.311 586.886C409.11 586.423 408.947 585.945 408.822 585.456C408.704 584.883 408.579 584.121 408.579 584.121C408.579 584.121 407.883 587.881 408.598 588.94C409.641 589.918 410.858 590.693 412.186 591.223Z" fill="#F9FBFC"/>
<path d="M413.313 565.02C413.561 564.497 413.732 563.941 413.82 563.369C413.837 562.81 412.821 562.065 412.363 561.641C411.653 560.973 411.178 560.094 411.008 559.134C411.093 558.423 411.198 557.881 411.198 557.881C410.563 559.594 410.119 561.372 409.873 563.183C409.926 563.947 410.216 564.675 410.703 565.266C410.703 565.266 410.973 564.043 411.567 564.08C412.223 564.23 412.827 564.554 413.313 565.02Z" fill="#F9FBFC"/>
<path d="M417.873 567.717C417.873 567.717 418.778 566.87 418.766 566.305C418.568 565.556 418.268 564.838 417.873 564.171C417.873 564.171 418.252 566.012 418.32 566.373C418.259 566.846 418.108 567.302 417.873 567.717Z" fill="#F9FBFC"/>
<path d="M407.412 589.897C407.412 589.897 405.574 588.752 405.239 588.451C404.807 587.774 404.53 587.009 404.431 586.211C404.464 585.89 405.058 584.454 405.058 584.058C405.058 583.663 403.855 582.257 403.855 582.257C404.026 582.795 404.134 583.351 404.177 583.915C404.109 584.239 402.541 586.102 402.639 586.797C402.737 587.491 404.228 588.747 404.657 589.029C405.553 589.385 406.474 589.675 407.412 589.897Z" fill="#F9FBFC"/>
<path d="M420.378 582.488C420.909 581.206 421.281 579.863 421.486 578.491C421.069 577.124 420.558 575.789 419.956 574.493C419.956 574.493 420.059 577.19 420.174 577.615C420.188 578.193 420.114 578.77 419.956 579.326C419.758 578.916 419.587 578.493 419.442 578.061C419.458 577.504 419.54 576.951 419.684 576.413C419.264 577.442 419.033 578.539 419.002 579.65C419.361 580.641 419.823 581.592 420.378 582.488Z" fill="#F9FBFC"/>
</g>
</g>
<defs>
<clipPath id="clip0_1447_13682">
<rect width="800" height="671.186" fill="white" transform="translate(0 0.406738)"/>
</clipPath>
</defs>
</svg>
